<svg xmlns="http://www.w3.org/2000/svg" viewBox="0 0 339.55 158.41"><defs><style>.cls-1{fill:#7c7a7a;}.cls-2{fill:#d75699;}.cls-3{fill:#5d2d43;}</style></defs><g id="Capa_2" data-name="Capa 2"><g id="Capa_3" data-name="Capa 3"><path class="cls-1" d="M143.45,104.59H330.18a9.37,9.37,0,0,1,9.37,9.37v0a9.37,9.37,0,0,1-9.37,9.37H143.45a0,0,0,0,1,0,0V104.59a0,0,0,0,1,0,0Z"/><path class="cls-2" d="M143.45,104.59H229.8a9.37,9.37,0,0,1,9.37,9.37v0a9.37,9.37,0,0,1-9.37,9.37H143.45a0,0,0,0,1,0,0V104.59A0,0,0,0,1,143.45,104.59Z"/><path class="cls-2" d="M187.58,69.63H176.73l-.61,1.76c-.21.63-.42,1.25-.62,1.86s-.4,1.17-.59,1.7-.34,1-.45,1.32a3.4,3.4,0,0,1-1.33.24,2.1,2.1,0,0,1-1.16-.34,1.24,1.24,0,0,1-.5-1.12,2.55,2.55,0,0,1,.12-.75c.08-.25.17-.53.28-.83.41-1.13.93-2.59,1.56-4.37s1.32-3.68,2.07-5.69,1.49-4,2.26-6.08,1.48-3.87,2.13-5.49a6.05,6.05,0,0,1,1-.32,5.4,5.4,0,0,1,1.34-.16,5.09,5.09,0,0,1,1.56.24,1.34,1.34,0,0,1,1,.81c.65,1.57,1.34,3.36,2.09,5.37s1.49,4.07,2.25,6.17,1.47,4.18,2.16,6.22,1.3,3.88,1.84,5.53a2.51,2.51,0,0,1-.77.59,2.18,2.18,0,0,1-1,.22,1.81,1.81,0,0,1-1.17-.34,2.67,2.67,0,0,1-.69-1.16Zm-5.42-15.52-1,2.78L180,60.15c-.4,1.13-.81,2.28-1.21,3.44s-.79,2.27-1.14,3.32h9.12c-.41-1.21-.83-2.44-1.26-3.66s-.84-2.41-1.23-3.55-.76-2.18-1.1-3.14-.61-1.77-.83-2.45Z"/><path class="cls-2" d="M193.05,74.49a2.37,2.37,0,0,1,.59-1.63,2.1,2.1,0,0,1,1.64-.64,2,2,0,0,1,1.62.64,2.4,2.4,0,0,1,.57,1.63,2.32,2.32,0,0,1-.57,1.58,2,2,0,0,1-1.62.64,2.1,2.1,0,0,1-1.64-.64A2.29,2.29,0,0,1,193.05,74.49Z"/><path class="cls-2" d="M206.46,76.29a3.57,3.57,0,0,1-.89.1c-1.19,0-1.78-.5-1.78-1.5V51.64a5.6,5.6,0,0,1,.63-.18,3.73,3.73,0,0,1,.91-.1q1.74,0,1.74,1.5V76.11Z"/><path class="cls-2" d="M222.44,60.67A5.21,5.21,0,0,0,219,59.62a9.4,9.4,0,0,0-2.88.41A10.83,10.83,0,0,0,214,61V76.11a6,6,0,0,1-.6.18,3.57,3.57,0,0,1-.89.1c-1.16,0-1.74-.49-1.74-1.46V61.12a2.59,2.59,0,0,1,.34-1.4,3.74,3.74,0,0,1,1.19-1.07,12.32,12.32,0,0,1,2.8-1.18A13.6,13.6,0,0,1,219,57a9.21,9.21,0,0,1,5.81,1.66c1.42,1.1,2.13,2.85,2.13,5.22V76.11l-.63.18a3.57,3.57,0,0,1-.87.1c-1.17,0-1.75-.49-1.75-1.46V64A4.07,4.07,0,0,0,222.44,60.67Z"/><path class="cls-2" d="M246,73.11a2,2,0,0,1-.34,1.25,3.76,3.76,0,0,1-1.08.89,8.9,8.9,0,0,1-2.3,1,11.65,11.65,0,0,1-3.44.46,13.75,13.75,0,0,1-4-.56,8.3,8.3,0,0,1-3.14-1.77,7.84,7.84,0,0,1-2-3,14.27,14.27,0,0,1,0-8.95,8.58,8.58,0,0,1,2-3.1,7.64,7.64,0,0,1,2.92-1.79,11.37,11.37,0,0,1,3.58-.56,9.57,9.57,0,0,1,2.52.32,9.79,9.79,0,0,1,2.1.81V49.94a4.84,4.84,0,0,1,.63-.18,3.69,3.69,0,0,1,.87-.1c1.16,0,1.74.48,1.74,1.45ZM242.75,61a8.58,8.58,0,0,0-1.86-1,6.72,6.72,0,0,0-2.43-.41,7.36,7.36,0,0,0-2.37.38,5,5,0,0,0-2,1.26,6.17,6.17,0,0,0-1.36,2.29,10.18,10.18,0,0,0-.51,3.44c0,2.49.6,4.28,1.78,5.39A6.67,6.67,0,0,0,238.78,74a7.54,7.54,0,0,0,2.33-.3,8.56,8.56,0,0,0,1.64-.75Z"/><path class="cls-2" d="M251.42,68.73q1.1,5.31,7,5.31a8,8,0,0,0,3.08-.57,9.25,9.25,0,0,0,2.18-1.21,1.73,1.73,0,0,1,1,1.54,1.56,1.56,0,0,1-.51,1.09,4.62,4.62,0,0,1-1.38.93,9.4,9.4,0,0,1-2,.65,12.23,12.23,0,0,1-2.49.24,10.48,10.48,0,0,1-7.44-2.55q-2.73-2.55-2.73-7.45a11.66,11.66,0,0,1,.67-4.11,8.73,8.73,0,0,1,1.86-3.06,7.93,7.93,0,0,1,2.86-1.92,9.42,9.42,0,0,1,3.6-.67,9.13,9.13,0,0,1,3.36.6,7.75,7.75,0,0,1,2.66,1.73,8,8,0,0,1,1.74,2.63,8.83,8.83,0,0,1,.63,3.34,1.72,1.72,0,0,1-.41,1.28,1.92,1.92,0,0,1-1.13.46ZM257,59.58a5.36,5.36,0,0,0-4.09,1.72,7.18,7.18,0,0,0-1.7,4.92l11.14-1.54A6,6,0,0,0,260.8,61,5,5,0,0,0,257,59.58Z"/><path class="cls-2" d="M280.54,71.2a4.8,4.8,0,0,1-1.9,4,8.89,8.89,0,0,1-5.51,1.46,13.83,13.83,0,0,1-2.83-.26,10.13,10.13,0,0,1-2.21-.69,4.53,4.53,0,0,1-1.42-1,1.66,1.66,0,0,1-.51-1.12,1.78,1.78,0,0,1,.27-.93,2.25,2.25,0,0,1,.79-.77,12.87,12.87,0,0,0,2.55,1.44,8.29,8.29,0,0,0,3.32.63q4.21,0,4.21-2.84c0-1.54-.93-2.53-2.79-3l-3.36-.89a7.35,7.35,0,0,1-3.61-1.89,4.53,4.53,0,0,1-1.13-3.18,5,5,0,0,1,.42-2,4.59,4.59,0,0,1,1.32-1.7,6.7,6.7,0,0,1,2.21-1.16,10.17,10.17,0,0,1,3.09-.42,10.6,10.6,0,0,1,4.58.83q1.74.82,1.74,1.92a1.64,1.64,0,0,1-1,1.54,13.23,13.23,0,0,0-2.06-1.05,8.07,8.07,0,0,0-3.16-.57,5.32,5.32,0,0,0-2.9.69,2.17,2.17,0,0,0-1.07,1.94,2.24,2.24,0,0,0,.6,1.58,4,4,0,0,0,2,1l2.79.69a8.74,8.74,0,0,1,4.13,2.05A4.89,4.89,0,0,1,280.54,71.2Z"/><path class="cls-2" d="M282.12,51.56a2,2,0,0,1,.59-1.44,2.07,2.07,0,0,1,1.52-.59,2,2,0,1,1,0,4,2.06,2.06,0,0,1-1.52-.58A2,2,0,0,1,282.12,51.56Zm3.73,24.55-.61.18a3.57,3.57,0,0,1-.89.1c-1.16,0-1.74-.49-1.74-1.46V57.55a5.6,5.6,0,0,1,.63-.18,4.3,4.3,0,0,1,.91-.1c1.13,0,1.7.5,1.7,1.5Z"/><path class="cls-2" d="M301.64,74.24a5.78,5.78,0,0,1-1.88,1,8.93,8.93,0,0,1-2.85.41,10.84,10.84,0,0,1-3.36-.51,7,7,0,0,1-2.78-1.62,7.79,7.79,0,0,1-1.9-2.89,11.64,11.64,0,0,1-.71-4.34,10.94,10.94,0,0,1,.69-4.05,7.83,7.83,0,0,1,4.86-4.68,11.5,11.5,0,0,1,3.76-.58,12,12,0,0,1,3.43.46,10,10,0,0,1,2.61,1.16,4.14,4.14,0,0,1,1,.91,2,2,0,0,1,.39,1.23V77a8,8,0,0,1-.67,3.42,5.94,5.94,0,0,1-1.87,2.27A8,8,0,0,1,299.54,84a14.31,14.31,0,0,1-3.48.41,12.28,12.28,0,0,1-3.51-.43,8.69,8.69,0,0,1-2-.75,2,2,0,0,1-1.22-1.74,1.61,1.61,0,0,1,.27-1,1.78,1.78,0,0,1,.66-.59,9.28,9.28,0,0,0,2.39,1.2,10.14,10.14,0,0,0,3.37.54,6.49,6.49,0,0,0,4.15-1.15,4.46,4.46,0,0,0,1.43-3.71ZM297.27,73a6,6,0,0,0,2.65-.51,6.87,6.87,0,0,0,1.72-1.15V60.75a7.7,7.7,0,0,0-1.72-.79,8,8,0,0,0-2.45-.34,5.88,5.88,0,0,0-4.39,1.66,6.78,6.78,0,0,0-1.64,4.94,9.64,9.64,0,0,0,.44,3.1,5.59,5.59,0,0,0,1.24,2.09A4.67,4.67,0,0,0,295,72.58,7.18,7.18,0,0,0,297.27,73Z"/><path class="cls-2" d="M319.53,60.67a5.21,5.21,0,0,0-3.42-1.05,9.4,9.4,0,0,0-2.88.41,10.83,10.83,0,0,0-2.15.93V76.11a5.62,5.62,0,0,1-.61.18,3.51,3.51,0,0,1-.89.1c-1.16,0-1.74-.49-1.74-1.46V61.12a2.59,2.59,0,0,1,.35-1.4,3.63,3.63,0,0,1,1.19-1.07,11.94,11.94,0,0,1,2.8-1.18,13.6,13.6,0,0,1,3.93-.52,9.21,9.21,0,0,1,5.81,1.66c1.42,1.1,2.12,2.85,2.12,5.22V76.11a6,6,0,0,1-.62.18,3.69,3.69,0,0,1-.87.1c-1.17,0-1.75-.49-1.75-1.46V64A4.07,4.07,0,0,0,319.53,60.67Z"/><rect class="cls-2" width="158.41" height="158.41" rx="79.2"/><rect class="cls-3" x="15.59" y="15.59" width="127.23" height="127.23" rx="63.61"/><rect class="cls-2" x="46.4" y="50.89" width="11.16" height="57.44"/><path class="cls-2" d="M109.5,95.87V49.27H98.66V73.38a16.41,16.41,0,0,0-14.32-8.17c-10,0-18.93,8.73-18.93,21.92,0,11.63,7.7,22,20.14,22A17,17,0,0,0,100.28,101s-.71,7.92,7.12,7.92a25.2,25.2,0,0,0,4.61-.56V99.1C111.09,99.05,109.5,97,109.5,95.87ZM98.66,92.79c-.38,1-3.47,7.12-10.27,7.12-7.19,0-11.74-6.36-11.74-12.54,0-5.62,3.71-12.94,11.09-12.94,6.6,0,10.49,7.07,10.92,8.25V92.79Z"/></g></g></svg>