<svg xmlns="http://www.w3.org/2000/svg" viewBox="0 0 338.76 158.04"><defs><style>.cls-1{fill:#7c7a7a;}.cls-2{fill:#e63f16;}.cls-3{fill:#fff;}</style></defs><g id="Capa_2" data-name="Capa 2"><g id="Capa_3" data-name="Capa 3"><path class="cls-1" d="M143.12,104.34H329.41a9.34,9.34,0,0,1,9.34,9.34v0a9.34,9.34,0,0,1-9.34,9.34H143.12a0,0,0,0,1,0,0V104.34A0,0,0,0,1,143.12,104.34Z"/><path class="cls-2" d="M143.12,104.34H287.73a8.69,8.69,0,0,1,8.69,8.69v1.31a8.69,8.69,0,0,1-8.69,8.69H143.12a0,0,0,0,1,0,0V104.34a0,0,0,0,1,0,0Z"/><rect class="cls-2" width="158.04" height="158.04" rx="79.02"/><rect class="cls-3" x="15.55" y="15.55" width="126.93" height="126.93" rx="63.46"/><path class="cls-2" d="M44.1,105.32a1.64,1.64,0,0,1-.9-1.7q0-24.72,0-49.44a1.34,1.34,0,0,1,1.06-1.48q21-7.83,42-15.73a9.88,9.88,0,0,1,6.82-.14c6.79,2.19,13.66,4.12,20.53,6,1.13.32,1.22,1,1.22,2q0,17.66,0,35.3V113c0,1.73-.08,1.8-1.69,2.27q-10.61,3-21.19,6.11a8.53,8.53,0,0,1-5.66-.28c-13.44-5.21-27-10.06-40.51-15.08-.58-.22-1.15-.48-1.71-.71.18-.18.39-.13.61-.1,6.29.86,12.58,1.7,18.86,2.57q12.2,1.69,24.38,3.42c1.35.19,1.35.17,1.36-1.25v-1.75q0-28.72.07-57.46c0-.92-.07-1.24-1.16-1C79.06,52,69.92,54.16,60.78,56.34c-2,.47-2,.48-2,2.49v39c0,.57.06,1-.73,1.34-4.12,1.54-8.21,3.18-12.31,4.8A2.89,2.89,0,0,0,44.1,105.32Z"/><path class="cls-3" d="M44.1,105.32A2.89,2.89,0,0,1,45.78,104c4.1-1.62,8.19-3.26,12.31-4.8.79-.3.73-.77.73-1.34v-39c0-2,0-2,2-2.49,9.14-2.18,18.28-4.33,27.41-6.57,1.09-.26,1.16.06,1.16,1q-.06,28.73-.07,57.46V110c0,1.42,0,1.44-1.36,1.25q-12.19-1.71-24.38-3.42c-6.28-.87-12.57-1.71-18.86-2.57-.22,0-.43-.08-.61.1Z"/><path class="cls-2" d="M193.45,71.41a15.4,15.4,0,0,1-.85,5.31,10.44,10.44,0,0,1-2.36,3.81,10,10,0,0,1-3.54,2.32,12.87,12.87,0,0,1-8.88,0,9.9,9.9,0,0,1-3.55-2.32,10.58,10.58,0,0,1-2.36-3.81,15.41,15.41,0,0,1-.84-5.31,15,15,0,0,1,.86-5.29,11,11,0,0,1,2.38-3.82A9.79,9.79,0,0,1,177.86,60a12.62,12.62,0,0,1,8.79,0,9.79,9.79,0,0,1,3.55,2.33,11,11,0,0,1,2.38,3.82A14.78,14.78,0,0,1,193.45,71.41Zm-3.21,0c0-3.09-.72-5.45-2.18-7.1a7.33,7.33,0,0,0-5.8-2.47,8,8,0,0,0-3.28.64,6.76,6.76,0,0,0-2.51,1.85,8.31,8.31,0,0,0-1.6,3,13.4,13.4,0,0,0-.56,4.09c0,3.09.72,5.45,2.16,7.1a8.06,8.06,0,0,0,11.61,0C189.52,76.86,190.24,74.5,190.24,71.41Z"/><path class="cls-2" d="M198.69,66.32h7.64a2.94,2.94,0,0,1,.24.5,2.24,2.24,0,0,1,.11.73c0,.85-.4,1.27-1.19,1.27h-6.76V83.06c-.13,0-.32.11-.58.18a3.7,3.7,0,0,1-.85.09c-1.1,0-1.65-.46-1.65-1.39V63.73q0-3.39,1.83-4.92a7.81,7.81,0,0,1,5.11-1.52,8.37,8.37,0,0,1,3.46.58c.83.38,1.25.86,1.25,1.42a1.82,1.82,0,0,1-.66,1.43,6.9,6.9,0,0,0-1.73-.64,9.05,9.05,0,0,0-2-.25,4.43,4.43,0,0,0-3.28,1,4.33,4.33,0,0,0-.93,3.09Zm12-6.64a1.86,1.86,0,0,1,.55-1.37,2,2,0,0,1,1.45-.56,1.91,1.91,0,0,1,1.43.56,2,2,0,0,1,0,2.74,1.91,1.91,0,0,1-1.43.56,2,2,0,0,1-1.45-.56A1.86,1.86,0,0,1,210.7,59.68Zm3.55,23.38-.58.18a3.76,3.76,0,0,1-.85.09c-1.11,0-1.66-.46-1.66-1.39V65.39a4.42,4.42,0,0,1,.6-.17,3.46,3.46,0,0,1,.87-.1c1.08,0,1.62.48,1.62,1.43Z"/><path class="cls-2" d="M238.9,68.24a4.41,4.41,0,0,0-2.89-.88,6.52,6.52,0,0,0-4.48,1.77,5.6,5.6,0,0,1,.23,1.66V83.06a5,5,0,0,1-.59.18,3.84,3.84,0,0,1-.83.09c-1.11,0-1.66-.46-1.66-1.39V71a3.41,3.41,0,0,0-1.08-2.78,4.5,4.5,0,0,0-2.94-.88,7.16,7.16,0,0,0-2.33.38,9.06,9.06,0,0,0-1.87.89V83.06c-.13,0-.32.11-.58.18a3.76,3.76,0,0,1-.85.09c-1.11,0-1.66-.46-1.66-1.39V68.78a2.38,2.38,0,0,1,.33-1.29,4,4,0,0,1,1.14-1.06,11.34,11.34,0,0,1,2.64-1.14,11.17,11.17,0,0,1,3.22-.48,9.47,9.47,0,0,1,3.36.56,5.07,5.07,0,0,1,2.24,1.53,8.26,8.26,0,0,1,2.51-1.49,9.2,9.2,0,0,1,3.43-.6,7.76,7.76,0,0,1,5,1.49,5.51,5.51,0,0,1,1.85,4.57V83.06a6,6,0,0,1-.6.18,3.84,3.84,0,0,1-.83.09c-1.1,0-1.66-.46-1.66-1.39V71A3.41,3.41,0,0,0,238.9,68.24Z"/><path class="cls-2" d="M252.29,64.81a8.52,8.52,0,0,1,5.33,1.51,5.59,5.59,0,0,1,2,4.74v9.15a2.14,2.14,0,0,1-.33,1.29,3.32,3.32,0,0,1-1,.83,10.54,10.54,0,0,1-2.46,1,14.07,14.07,0,0,1-3.49.4,9.49,9.49,0,0,1-5.61-1.43,4.76,4.76,0,0,1-2-4.13,4.58,4.58,0,0,1,1.66-3.84,9,9,0,0,1,4.67-1.6l5.48-.54V71.06a3.36,3.36,0,0,0-1.16-2.82,5,5,0,0,0-3.12-.88,9.74,9.74,0,0,0-3,.46,17.08,17.08,0,0,0-2.55,1,3.34,3.34,0,0,1-.56-.62,1.25,1.25,0,0,1-.25-.77,1.38,1.38,0,0,1,.27-.88,2.53,2.53,0,0,1,.85-.66,9.32,9.32,0,0,1,2.39-.83A14.2,14.2,0,0,1,252.29,64.81Zm0,16.32a9.53,9.53,0,0,0,2.68-.32,6.58,6.58,0,0,0,1.53-.64v-5.6l-4.79.51a6,6,0,0,0-3,.9,2.47,2.47,0,0,0-1,2.11,2.59,2.59,0,0,0,1.11,2.25A5.91,5.91,0,0,0,252.33,81.13Z"/><path class="cls-2" d="M268.42,83.64A7.44,7.44,0,0,1,264,82.45a4.56,4.56,0,0,1-1.68-4V60.14A4.42,4.42,0,0,1,263,60a4,4,0,0,1,.87-.1c1.08,0,1.62.47,1.62,1.39V65.7h6.33a2.93,2.93,0,0,1,.23.52,2.08,2.08,0,0,1,.12.71c0,.88-.39,1.31-1.16,1.31h-5.52v10a2.53,2.53,0,0,0,.87,2.18,4.11,4.11,0,0,0,2.45.64,5.1,5.1,0,0,0,1.46-.24,5.83,5.83,0,0,0,1.36-.54,3,3,0,0,1,.42.58,1.62,1.62,0,0,1,.19.81,1.58,1.58,0,0,1-1,1.39A5.91,5.91,0,0,1,268.42,83.64Z"/><path class="cls-2" d="M273.52,59.68a1.83,1.83,0,0,1,.56-1.37,2,2,0,0,1,1.44-.56,1.91,1.91,0,0,1,1.43.56,2,2,0,0,1,0,2.74,1.91,1.91,0,0,1-1.43.56,2,2,0,0,1-1.44-.56A1.83,1.83,0,0,1,273.52,59.68Zm3.55,23.38-.58.18a3.76,3.76,0,0,1-.85.09c-1.11,0-1.66-.46-1.66-1.39V65.39a4.42,4.42,0,0,1,.6-.17,3.44,3.44,0,0,1,.86-.1c1.08,0,1.63.48,1.63,1.43Z"/><path class="cls-2" d="M288.45,67.4a6.6,6.6,0,0,0-2.43.44,5.25,5.25,0,0,0-1.93,1.31,6.06,6.06,0,0,0-1.27,2.16,8.74,8.74,0,0,0-.47,3A7.1,7.1,0,0,0,284,79.34a5.84,5.84,0,0,0,4.44,1.76,7.05,7.05,0,0,0,2.7-.45,10.63,10.63,0,0,0,1.93-1,2.18,2.18,0,0,1,.69.58,1.33,1.33,0,0,1,.27.85,1.46,1.46,0,0,1-.42,1,3.6,3.6,0,0,1-1.18.81,8.2,8.2,0,0,1-1.77.56,11,11,0,0,1-2.22.21,11.26,11.26,0,0,1-3.7-.58,7.66,7.66,0,0,1-4.87-4.65,11.31,11.31,0,0,1-.69-4.15,10.57,10.57,0,0,1,.73-4.1,8.72,8.72,0,0,1,2-3,8,8,0,0,1,2.91-1.79,10.53,10.53,0,0,1,3.57-.6,11,11,0,0,1,2.22.21,7,7,0,0,1,1.76.6,3.74,3.74,0,0,1,1.13.87,1.53,1.53,0,0,1,.41,1,1.28,1.28,0,0,1-.27.81,1.67,1.67,0,0,1-.69.54,11,11,0,0,0-1.86-1A6.87,6.87,0,0,0,288.45,67.4Z"/><path class="cls-2" d="M302.22,64.81a8.52,8.52,0,0,1,5.33,1.51,5.59,5.59,0,0,1,2,4.74v9.15a2.14,2.14,0,0,1-.33,1.29,3.32,3.32,0,0,1-1,.83,10.54,10.54,0,0,1-2.46,1,14.07,14.07,0,0,1-3.49.4,9.49,9.49,0,0,1-5.61-1.43,4.76,4.76,0,0,1-2-4.13,4.58,4.58,0,0,1,1.66-3.84,9,9,0,0,1,4.67-1.6l5.48-.54V71.06a3.36,3.36,0,0,0-1.16-2.82,5,5,0,0,0-3.12-.88,9.79,9.79,0,0,0-3.05.46,18,18,0,0,0-2.55,1,3.34,3.34,0,0,1-.56-.62,1.25,1.25,0,0,1-.25-.77,1.38,1.38,0,0,1,.27-.88,2.53,2.53,0,0,1,.85-.66,9.32,9.32,0,0,1,2.39-.83A14.2,14.2,0,0,1,302.22,64.81Zm0,16.32a9.53,9.53,0,0,0,2.68-.32,6.58,6.58,0,0,0,1.53-.64v-5.6l-4.79.51a6,6,0,0,0-3,.9,2.47,2.47,0,0,0-1,2.11,2.58,2.58,0,0,0,1.12,2.25A5.85,5.85,0,0,0,302.26,81.13Z"/></g></g></svg>