<svg xmlns="http://www.w3.org/2000/svg" viewBox="0 0 338.76 158.04"><defs><style>.cls-1{fill:#f3971a;}.cls-2{fill:#7c7a7a;}.cls-3{fill:#4a3c22;}</style></defs><g id="Capa_2" data-name="Capa 2"><g id="Capa_3" data-name="Capa 3"><path class="cls-1" d="M186.42,69.69H176.08c-.18.51-.37,1.07-.58,1.68s-.4,1.19-.6,1.77-.37,1.12-.56,1.62-.32.92-.42,1.26a3.27,3.27,0,0,1-1.27.23,1.9,1.9,0,0,1-1.1-.33,1.19,1.19,0,0,1-.48-1.06,2.23,2.23,0,0,1,.11-.71c.08-.25.17-.51.27-.8.39-1.08.88-2.47,1.49-4.16s1.26-3.51,2-5.43,1.43-3.84,2.17-5.78,1.4-3.69,2-5.23a5,5,0,0,1,.93-.31,5.32,5.32,0,0,1,1.27-.15,4.69,4.69,0,0,1,1.49.23,1.29,1.29,0,0,1,.9.77c.62,1.49,1.28,3.2,2,5.11s1.42,3.88,2.14,5.89,1.41,4,2.07,5.92,1.24,3.7,1.75,5.27a2.54,2.54,0,0,1-.73.56,2.13,2.13,0,0,1-1,.21,1.65,1.65,0,0,1-1.11-.33,2.46,2.46,0,0,1-.66-1.1Zm-5.17-14.78-1,2.64c-.36,1-.74,2-1.12,3.11s-.77,2.17-1.16,3.28-.75,2.16-1.08,3.16h8.68c-.38-1.15-.78-2.32-1.19-3.49s-.81-2.29-1.18-3.38-.72-2.07-1-3-.59-1.7-.79-2.34Z"/><path class="cls-1" d="M191.63,74.32a2.21,2.21,0,0,1,.56-1.54,2,2,0,0,1,1.56-.62,1.93,1.93,0,0,1,1.55.62,2.24,2.24,0,0,1,.54,1.54,2.19,2.19,0,0,1-.54,1.5,1.93,1.93,0,0,1-1.55.62,2,2,0,0,1-1.56-.62A2.16,2.16,0,0,1,191.63,74.32Z"/><path class="cls-1" d="M204.4,76a3.67,3.67,0,0,1-.84.09c-1.14,0-1.7-.47-1.7-1.42V52.56a3.79,3.79,0,0,1,.6-.18,4,4,0,0,1,.86-.09c1.11,0,1.66.47,1.66,1.42V75.86C204.85,75.91,204.66,76,204.4,76Z"/><path class="cls-1" d="M211.31,76a3.76,3.76,0,0,1-.85.09c-1.11,0-1.66-.46-1.66-1.39V50.93c.13,0,.33-.1.6-.17a3.84,3.84,0,0,1,.83-.09c1.11,0,1.66.46,1.66,1.38V75.86C211.76,75.91,211.57,76,211.31,76Z"/><path class="cls-1" d="M218,76a3.67,3.67,0,0,1-.84.09c-1.11,0-1.66-.46-1.66-1.39V50.93c.13,0,.32-.1.59-.17a3.84,3.84,0,0,1,.83-.09c1.11,0,1.66.46,1.66,1.38V75.86C218.47,75.91,218.28,76,218,76Z"/><path class="cls-1" d="M221.81,58.19a3.82,3.82,0,0,1,.59-.17,3.46,3.46,0,0,1,.87-.1c1.08,0,1.62.48,1.62,1.43v9.91a4.34,4.34,0,0,0,1.31,3.57,5.62,5.62,0,0,0,3.63,1.06,9.18,9.18,0,0,0,2.63-.32,8.75,8.75,0,0,0,1.69-.68V58.19a4.42,4.42,0,0,1,.6-.17,3.31,3.31,0,0,1,.83-.1c1.11,0,1.66.48,1.66,1.43V72.78a3.27,3.27,0,0,1-.21,1.29,2.3,2.3,0,0,1-1,.94,12.07,12.07,0,0,1-2.45,1,13.4,13.4,0,0,1-3.77.46,9,9,0,0,1-5.92-1.7c-1.38-1.13-2.06-2.9-2.06-5.32Z"/><path class="cls-1" d="M252.71,71.19a4.57,4.57,0,0,1-1.81,3.86,8.49,8.49,0,0,1-5.25,1.39,13.33,13.33,0,0,1-2.7-.25,10.24,10.24,0,0,1-2.1-.65,4.56,4.56,0,0,1-1.35-.93,1.57,1.57,0,0,1-.48-1.06,1.69,1.69,0,0,1,.25-.89,2,2,0,0,1,.75-.73,12.16,12.16,0,0,0,2.43,1.37,7.88,7.88,0,0,0,3.16.59c2.68,0,4-.89,4-2.7q0-2.19-2.67-2.85l-3.2-.85a6.89,6.89,0,0,1-3.43-1.8,4.28,4.28,0,0,1-1.08-3,4.73,4.73,0,0,1,.4-1.93,4.32,4.32,0,0,1,1.25-1.62A6.29,6.29,0,0,1,243,58a9.59,9.59,0,0,1,3-.41,10.3,10.3,0,0,1,4.36.79c1.11.53,1.66,1.14,1.66,1.83a1.56,1.56,0,0,1-.93,1.47,12.16,12.16,0,0,0-2-1,7.64,7.64,0,0,0-3-.54,5.11,5.11,0,0,0-2.75.65,2.1,2.1,0,0,0-1,1.86,2.13,2.13,0,0,0,.58,1.5,3.82,3.82,0,0,0,1.93.93l2.66.65a8.41,8.41,0,0,1,3.94,2A4.66,4.66,0,0,1,252.71,71.19Z"/><path class="cls-1" d="M260.58,76.44a7.46,7.46,0,0,1-4.38-1.19,4.58,4.58,0,0,1-1.67-4V52.94a3.82,3.82,0,0,1,.59-.17,4.07,4.07,0,0,1,.87-.1c1.08,0,1.62.46,1.62,1.39V58.5h6.33a2.35,2.35,0,0,1,.23.52,2.08,2.08,0,0,1,.12.71c0,.88-.39,1.31-1.16,1.31h-5.52v10a2.53,2.53,0,0,0,.87,2.18,4.13,4.13,0,0,0,2.45.63,5.18,5.18,0,0,0,1.47-.23,5.74,5.74,0,0,0,1.35-.54,3,3,0,0,1,.42.58,1.62,1.62,0,0,1,.2.81,1.59,1.59,0,0,1-1,1.39A5.91,5.91,0,0,1,260.58,76.44Z"/><path class="cls-1" d="M269,75.86l-.58.18a3.76,3.76,0,0,1-.85.09c-1.11,0-1.66-.46-1.66-1.39V61.66a2.63,2.63,0,0,1,.33-1.41,3.74,3.74,0,0,1,1.09-1,10.47,10.47,0,0,1,2.73-1.14,14.33,14.33,0,0,1,3.87-.48c2.06,0,3.09.51,3.09,1.54a2.36,2.36,0,0,1-.11.72,1.89,1.89,0,0,1-.31.56l-1-.16a10.14,10.14,0,0,0-1.23-.07,12.24,12.24,0,0,0-3.13.36,10.17,10.17,0,0,0-2.23.87Z"/><path class="cls-1" d="M283.93,57.61a8.54,8.54,0,0,1,5.33,1.51,5.58,5.58,0,0,1,2,4.74V73a2.21,2.21,0,0,1-.32,1.29,3.37,3.37,0,0,1-1,.83,10.44,10.44,0,0,1-2.45,1,14.13,14.13,0,0,1-3.49.4,9.55,9.55,0,0,1-5.62-1.43,4.78,4.78,0,0,1-2-4.13A4.6,4.6,0,0,1,278,67.08a9.09,9.09,0,0,1,4.68-1.6l5.47-.54V63.86A3.35,3.35,0,0,0,287,61a5,5,0,0,0-3.13-.88,9.79,9.79,0,0,0-3.05.46,17.39,17.39,0,0,0-2.54,1,3,3,0,0,1-.56-.62,1.26,1.26,0,0,1-.26-.77,1.38,1.38,0,0,1,.28-.88,2.44,2.44,0,0,1,.85-.66A9.32,9.32,0,0,1,281,57.9,14.13,14.13,0,0,1,283.93,57.61Zm0,16.32a9.58,9.58,0,0,0,2.68-.32,6.28,6.28,0,0,0,1.52-.64v-5.6l-4.78.5a6.06,6.06,0,0,0-3,.91,2.47,2.47,0,0,0-1,2.1,2.61,2.61,0,0,0,1.12,2.26A5.91,5.91,0,0,0,284,73.93Z"/><path class="cls-1" d="M300.06,76.44a7.44,7.44,0,0,1-4.38-1.19,4.56,4.56,0,0,1-1.68-4V52.94a4.42,4.42,0,0,1,.6-.17,4,4,0,0,1,.87-.1c1.08,0,1.62.46,1.62,1.39V58.5h6.33a3.91,3.91,0,0,1,.23.52,2.07,2.07,0,0,1,.11.71c0,.88-.38,1.31-1.15,1.31h-5.52v10a2.53,2.53,0,0,0,.87,2.18,4.11,4.11,0,0,0,2.45.63,5.17,5.17,0,0,0,1.46-.23,5.74,5.74,0,0,0,1.35-.54,2.65,2.65,0,0,1,.43.58,1.62,1.62,0,0,1,.19.81,1.58,1.58,0,0,1-1,1.39A5.94,5.94,0,0,1,300.06,76.44Z"/><path class="cls-1" d="M321.4,67a11.54,11.54,0,0,1-.62,3.89,8.46,8.46,0,0,1-1.76,3,7.42,7.42,0,0,1-2.75,1.9,10.46,10.46,0,0,1-7.26,0,7.79,7.79,0,0,1-2.78-1.9,8.33,8.33,0,0,1-1.77-3,11.54,11.54,0,0,1-.62-3.89,11.16,11.16,0,0,1,.64-3.9,8.52,8.52,0,0,1,1.79-3,7.67,7.67,0,0,1,2.78-1.89,10.09,10.09,0,0,1,7.18,0A7.4,7.4,0,0,1,319,60.16a8.65,8.65,0,0,1,1.78,3A11.39,11.39,0,0,1,321.4,67Zm-8.76-6.87A5.07,5.07,0,0,0,308.51,62,7.67,7.67,0,0,0,307,67a7.76,7.76,0,0,0,1.48,5.07,5.07,5.07,0,0,0,4.15,1.79,5,5,0,0,0,4.13-1.81,7.87,7.87,0,0,0,1.46-5A7.78,7.78,0,0,0,316.75,62,5,5,0,0,0,312.64,60.16Z"/><path class="cls-1" d="M326.38,75.86l-.58.18a3.82,3.82,0,0,1-.85.09c-1.11,0-1.66-.46-1.66-1.39V61.66a2.63,2.63,0,0,1,.33-1.41,3.62,3.62,0,0,1,1.09-1,10.62,10.62,0,0,1,2.73-1.14,14.33,14.33,0,0,1,3.87-.48c2.06,0,3.09.51,3.09,1.54a2.09,2.09,0,0,1-.12.72,1.87,1.87,0,0,1-.3.56l-1-.16a10.14,10.14,0,0,0-1.23-.07,12.24,12.24,0,0,0-3.13.36,10.17,10.17,0,0,0-2.23.87Z"/><path class="cls-2" d="M143.12,104.34H329.41a9.34,9.34,0,0,1,9.34,9.34v0a9.34,9.34,0,0,1-9.34,9.34H143.12a0,0,0,0,1,0,0V104.34a0,0,0,0,1,0,0Z"/><path class="cls-1" d="M143.12,104.34H311a9.34,9.34,0,0,1,9.34,9.34v0A9.34,9.34,0,0,1,311,123H143.12a0,0,0,0,1,0,0V104.34a0,0,0,0,1,0,0Z"/><rect class="cls-1" width="158.04" height="158.04" rx="79.02"/><rect class="cls-3" x="15.55" y="15.55" width="126.93" height="126.93" rx="63.46"/><path class="cls-1" d="M76.06,50.67H66.31l-21.64,56.7H56L61.2,93.23H81l5.27,14.14H97.62ZM63,85.49,71.18,63.2,79,85.49Z"/><rect class="cls-1" x="102.96" y="66.67" width="10.41" height="40.7"/><rect class="cls-1" x="102.96" y="50.67" width="10.41" height="10.33"/></g></g></svg>