<svg xmlns="http://www.w3.org/2000/svg" viewBox="0 0 134.91 156.58"><defs><style>.cls-1,.cls-2{fill:#026581;}.cls-2{fill-rule:evenodd;}</style></defs><g id="Capa_2" data-name="Capa 2"><g id="Capa_3" data-name="Capa 3"><path class="cls-1" d="M11.5,133.45a3.38,3.38,0,0,1,1.61-.36c1,0,1.62.31,1.84.93.43,1.29.83,2.52,1.22,3.67L17.28,141c.36,1.06.71,2.11,1,3.14s.67,2.1,1,3.2h.14c.34-1.6.67-3.18,1-4.72s.66-3.11,1-4.68.61-3.16.9-4.77.56-3.33.82-5.12a2.71,2.71,0,0,1,1.22-.25,1.73,1.73,0,0,1,1.08.3,1.07,1.07,0,0,1,.4.92,16.92,16.92,0,0,1-.2,2.08c-.13.93-.31,2-.54,3.22s-.49,2.51-.79,3.91-.62,2.78-.95,4.13-.67,2.66-1,3.9-.66,2.31-1,3.2a4.73,4.73,0,0,1-.82.34,3.72,3.72,0,0,1-1.15.16,3.1,3.1,0,0,1-1.33-.25,1.34,1.34,0,0,1-.72-.68c-.26-.62-.56-1.41-.9-2.35s-.69-2-1.06-3.13-.75-2.32-1.13-3.56-.76-2.46-1.11-3.68c-.36,1.2-.74,2.43-1.12,3.7s-.76,2.5-1.13,3.68S10.2,146,9.84,147s-.68,1.85-1,2.52a3.21,3.21,0,0,1-.79.32,4.36,4.36,0,0,1-1.15.14,2.83,2.83,0,0,1-1.33-.27,1.5,1.5,0,0,1-.68-.66,20.21,20.21,0,0,1-.73-2.16q-.42-1.4-.87-3.18c-.3-1.18-.61-2.46-.93-3.82s-.64-2.73-.93-4.08-.58-2.66-.83-3.92-.46-2.39-.63-3.39A2.46,2.46,0,0,1,.68,128a2.12,2.12,0,0,1,.94-.21,1.42,1.42,0,0,1,1.51,1.32c.31,1.51.61,3,.89,4.37s.58,2.83.88,4.27.62,3,1,4.51.7,3.25,1.11,5.07h.14c.34-1.08.66-2.1,1-3.07s.64-2,1-3,.7-2.2,1.1-3.45S11,135.1,11.5,133.45Z"/><path class="cls-1" d="M29.86,150a3.29,3.29,0,0,1-.79.09c-1,0-1.55-.43-1.55-1.29V126.58c.12,0,.31-.1.56-.16a3.47,3.47,0,0,1,.81-.09c1,0,1.5.43,1.5,1.3v6.46a12.46,12.46,0,0,1,2-.9,8.34,8.34,0,0,1,2.65-.39,9.07,9.07,0,0,1,2.74.39A5.85,5.85,0,0,1,40,134.4a5.38,5.38,0,0,1,1.4,2,7.54,7.54,0,0,1,.51,2.89v10.45a4.22,4.22,0,0,1-.56.16,3.31,3.31,0,0,1-.77.09c-1,0-1.55-.43-1.55-1.29v-9.34a4,4,0,0,0-1.18-3.2,4.62,4.62,0,0,0-3.13-1,6.11,6.11,0,0,0-2.35.45,8,8,0,0,0-1.93,1.1v13.07A4.5,4.5,0,0,1,29.86,150Z"/><path class="cls-1" d="M50.44,132.8a8,8,0,0,1,5,1.4,5.21,5.21,0,0,1,1.83,4.42v8.51a2.06,2.06,0,0,1-.3,1.21,3.18,3.18,0,0,1-.92.77,9,9,0,0,1-2.28.88,12.78,12.78,0,0,1-3.25.38A8.9,8.9,0,0,1,45.25,149a4.46,4.46,0,0,1-1.85-3.85A4.24,4.24,0,0,1,45,141.62a8.31,8.31,0,0,1,4.34-1.49l5.1-.5v-1A3.08,3.08,0,0,0,53.32,136a4.68,4.68,0,0,0-2.91-.83,9,9,0,0,0-2.84.43,15.55,15.55,0,0,0-2.37,1,3.12,3.12,0,0,1-.52-.57,1.2,1.2,0,0,1-.24-.72,1.36,1.36,0,0,1,.25-.83,2.64,2.64,0,0,1,.79-.61,9.13,9.13,0,0,1,2.23-.77A13,13,0,0,1,50.44,132.8Zm0,15.2a8.31,8.31,0,0,0,2.49-.31,5.63,5.63,0,0,0,1.42-.59v-5.21l-4.45.47a5.63,5.63,0,0,0-2.77.84,2.28,2.28,0,0,0-.9,2,2.41,2.41,0,0,0,1,2.1A5.48,5.48,0,0,0,50.48,148Z"/><path class="cls-1" d="M65.46,150.33a6.89,6.89,0,0,1-4.08-1.11,4.23,4.23,0,0,1-1.56-3.7V128.45a3.8,3.8,0,0,1,.56-.16,3.44,3.44,0,0,1,.8-.09c1,0,1.51.43,1.51,1.29v4.14h5.89a2.18,2.18,0,0,1,.22.48,2,2,0,0,1,.11.66q0,1.23-1.08,1.23H62.69v9.34a2.35,2.35,0,0,0,.81,2,3.84,3.84,0,0,0,2.28.59,4.86,4.86,0,0,0,1.37-.22,5.8,5.8,0,0,0,1.26-.5,2.89,2.89,0,0,1,.39.54,1.55,1.55,0,0,1,.18.76,1.49,1.49,0,0,1-.93,1.29A5.62,5.62,0,0,1,65.46,150.33Z"/><path class="cls-1" d="M82.42,145.45A4.28,4.28,0,0,1,80.73,149a8,8,0,0,1-4.89,1.29,13,13,0,0,1-2.51-.23,9.09,9.09,0,0,1-2-.61,4,4,0,0,1-1.26-.86,1.48,1.48,0,0,1-.45-1,1.57,1.57,0,0,1,.24-.83,2,2,0,0,1,.7-.68,11,11,0,0,0,2.26,1.27,7.39,7.39,0,0,0,3,.56q3.73,0,3.73-2.51c0-1.37-.82-2.26-2.48-2.66l-3-.79a6.56,6.56,0,0,1-3.2-1.67,4,4,0,0,1-1-2.82,4.43,4.43,0,0,1,.37-1.8,4.14,4.14,0,0,1,1.17-1.51,6,6,0,0,1,2-1,9,9,0,0,1,2.75-.38,9.5,9.5,0,0,1,4.06.74c1,.49,1.54,1.06,1.54,1.7a1.46,1.46,0,0,1-.23.83,1.5,1.5,0,0,1-.63.54,11.6,11.6,0,0,0-1.83-.94,7.22,7.22,0,0,0-2.8-.5,4.68,4.68,0,0,0-2.57.61,1.93,1.93,0,0,0-1,1.73,2,2,0,0,0,.53,1.4,3.52,3.52,0,0,0,1.8.86l2.48.61a7.94,7.94,0,0,1,3.67,1.81A4.4,4.4,0,0,1,82.42,145.45Z"/><path class="cls-1" d="M96.93,144H87.3c-.16.48-.34,1-.54,1.57s-.37,1.11-.55,1.65-.36,1-.52,1.51-.3.86-.4,1.17a3,3,0,0,1-1.18.21,1.81,1.81,0,0,1-1-.3,1.12,1.12,0,0,1-.45-1,2.29,2.29,0,0,1,.11-.67c.07-.22.16-.47.25-.73.36-1,.82-2.3,1.39-3.88s1.17-3.27,1.83-5.05,1.33-3.58,2-5.39,1.31-3.43,1.89-4.87A4.93,4.93,0,0,1,91,128a5.15,5.15,0,0,1,1.18-.14,4.35,4.35,0,0,1,1.39.22,1.21,1.21,0,0,1,.84.71c.58,1.39,1.19,3,1.85,4.77s1.32,3.61,2,5.47,1.31,3.71,1.92,5.52,1.15,3.44,1.63,4.9a2.16,2.16,0,0,1-.68.52,1.87,1.87,0,0,1-.9.2,1.59,1.59,0,0,1-1-.3,2.42,2.42,0,0,1-.61-1Zm-4.81-13.76c-.27.72-.57,1.54-.9,2.47s-.68,1.88-1,2.89-.72,2-1.08,3.05-.7,2-1,2.95h8.09c-.36-1.08-.73-2.16-1.12-3.25s-.75-2.14-1.09-3.15l-1-2.78c-.3-.85-.55-1.58-.74-2.18Z"/><path class="cls-1" d="M109.9,150.33a9.06,9.06,0,0,1-2.37-.29,7.65,7.65,0,0,1-1.83-.68v7a4.21,4.21,0,0,1-.54.16,3.24,3.24,0,0,1-.79.09c-1,0-1.55-.44-1.55-1.33v-19a2.28,2.28,0,0,1,.26-1.15,2.83,2.83,0,0,1,1-.89,13.68,13.68,0,0,1,2.31-1,9.74,9.74,0,0,1,3.08-.45,10.93,10.93,0,0,1,3.32.5,7.14,7.14,0,0,1,2.69,1.56,7.44,7.44,0,0,1,1.8,2.72,10.63,10.63,0,0,1,.67,3.95,11.34,11.34,0,0,1-.6,3.88,7.36,7.36,0,0,1-1.67,2.75,6.76,6.76,0,0,1-2.57,1.63A9.47,9.47,0,0,1,109.9,150.33Zm-.39-2.37a5.47,5.47,0,0,0,4-1.53c1-1,1.53-2.65,1.53-4.9a8.9,8.9,0,0,0-.45-3,5.15,5.15,0,0,0-1.23-2,4.51,4.51,0,0,0-1.77-1.08,7.07,7.07,0,0,0-2.12-.32,6.68,6.68,0,0,0-2.2.32,12.73,12.73,0,0,0-1.61.72v10.6a6,6,0,0,0,1.61.83A6.94,6.94,0,0,0,109.51,148Z"/><path class="cls-1" d="M126.82,150.33a9.06,9.06,0,0,1-2.37-.29,7.65,7.65,0,0,1-1.83-.68v7a4.21,4.21,0,0,1-.54.16,3.24,3.24,0,0,1-.79.09c-1,0-1.55-.44-1.55-1.33v-19a2.28,2.28,0,0,1,.26-1.15,2.83,2.83,0,0,1,1-.89,13.46,13.46,0,0,1,2.32-1,9.63,9.63,0,0,1,3.07-.45,10.93,10.93,0,0,1,3.32.5,7.14,7.14,0,0,1,2.69,1.56,7.44,7.44,0,0,1,1.8,2.72,10.63,10.63,0,0,1,.67,3.95,11.34,11.34,0,0,1-.6,3.88,7.36,7.36,0,0,1-1.67,2.75,6.76,6.76,0,0,1-2.57,1.63A9.43,9.43,0,0,1,126.82,150.33Zm-.39-2.37a5.47,5.47,0,0,0,4-1.53c1-1,1.53-2.65,1.53-4.9a8.66,8.66,0,0,0-.45-3,5.25,5.25,0,0,0-1.22-2,4.61,4.61,0,0,0-1.78-1.08,7.07,7.07,0,0,0-2.12-.32,6.58,6.58,0,0,0-2.19.32,12.28,12.28,0,0,0-1.62.72v10.6a5.87,5.87,0,0,0,1.62.83A6.83,6.83,0,0,0,126.43,148Z"/><path class="cls-1" d="M67.63,109a54.48,54.48,0,1,1,54.48-54.47A54.54,54.54,0,0,1,67.63,109Zm0-103.1a48.63,48.63,0,1,0,48.63,48.63A48.68,48.68,0,0,0,67.63,5.85Z"/><path class="cls-2" d="M70.2,19A32.87,32.87,0,0,0,42.57,69.73l-5,11a2.86,2.86,0,0,0,2.62,4.05,2.84,2.84,0,0,0,.76-.1l13.76-3.77A32.89,32.89,0,1,0,70.2,19Zm0,60a27.06,27.06,0,0,1-13.66-3.7A3,3,0,0,0,55.09,75a3.23,3.23,0,0,0-.76.1l-9,2.47,3.14-6.9a2.9,2.9,0,0,0-.29-2.87,27.14,27.14,0,1,1,22,11.29Z"/><path class="cls-2" d="M82.85,56.83c-1.38-.82-3.17-1.74-4.79-1.08-1.25.51-2,2.46-2.85,3.45a1.2,1.2,0,0,1-1.54.34,21.69,21.69,0,0,1-10.84-9.28A1.35,1.35,0,0,1,63,48.44a7.24,7.24,0,0,0,2-3.19,7,7,0,0,0-.88-3.78c-.65-1.41-1.38-3.41-2.79-4.21a3.84,3.84,0,0,0-4.16.62,8.43,8.43,0,0,0-2.92,6.68,10,10,0,0,0,.26,2.12,17.76,17.76,0,0,0,2,4.69,38.19,38.19,0,0,0,2.12,3.23,32.93,32.93,0,0,0,9.21,8.55,28,28,0,0,0,5.74,2.73c2.25.74,4.26,1.52,6.69,1.05a8.08,8.08,0,0,0,6.06-4.5,3.92,3.92,0,0,0,.28-2.31C86.28,58.54,84.13,57.6,82.85,56.83Z"/></g></g></svg>