<svg xmlns="http://www.w3.org/2000/svg" viewBox="0 0 158.41 158.41"><defs><style>.cls-1{fill:#d75699;}.cls-2{fill:#5d2d43;}</style></defs><g id="Capa_2" data-name="Capa 2"><g id="Capa_3" data-name="Capa 3"><rect class="cls-1" width="158.41" height="158.41" rx="79.2"/><rect class="cls-2" x="15.59" y="15.59" width="127.23" height="127.23" rx="63.61"/><rect class="cls-1" x="46.4" y="50.89" width="11.16" height="57.44"/><path class="cls-1" d="M109.5,95.87V49.27H98.66V73.38a16.41,16.41,0,0,0-14.32-8.17c-10,0-18.93,8.73-18.93,21.92,0,11.63,7.7,22,20.14,22A17,17,0,0,0,100.28,101s-.71,7.92,7.12,7.92a25.2,25.2,0,0,0,4.61-.56V99.1C111.09,99.05,109.5,97,109.5,95.87ZM98.66,92.79c-.38,1-3.47,7.12-10.27,7.12-7.19,0-11.74-6.36-11.74-12.54,0-5.62,3.71-12.94,11.09-12.94,6.6,0,10.49,7.07,10.92,8.25V92.79Z"/></g></g></svg>