<svg xmlns="http://www.w3.org/2000/svg" viewBox="0 0 780.43 465.55"><defs><style>.cls-1{fill:#1a1d26;}.cls-2{fill:#fff;}.cls-3{fill:#e5302a;}.cls-4{fill:#fbfbfb;}.cls-5{fill:#282c38;}.cls-6{fill:#626786;}.cls-7{fill:none;stroke:#f9f9f9;stroke-miterlimit:10;stroke-width:2.07px;}</style></defs><g id="Capa_2" data-name="Capa 2"><g id="Capa_3" data-name="Capa 3"><rect class="cls-1" width="780.43" height="465.55" rx="21.25"/><polygon class="cls-2" points="48.47 433.82 35.89 440.97 23.3 448.13 23.3 433.82 23.3 419.5 35.89 426.66 48.47 433.82"/><ellipse class="cls-3" cx="390.22" cy="196.17" rx="122.59" ry="120.78"/><path class="cls-4" d="M461.18,187.88a9.55,9.55,0,0,1,0,16.59l-50.84,28.92L372.6,254.86c-12.31,7-27.69-1.75-27.69-15.75V153.23c0-14,15.38-22.74,27.69-15.74L410.34,159Z"/><rect class="cls-5" x="246.08" y="393.23" width="514.53" height="14.87" rx="2.69"/><rect class="cls-6" x="246.08" y="393.23" width="34.93" height="14.87" rx="2.56"/><circle class="cls-3" cx="231.79" cy="400.67" r="17.69"/><path class="cls-3" d="M23.86,393.23H223.42a0,0,0,0,1,0,0V408.1a0,0,0,0,1,0,0H23.86a3.42,3.42,0,0,1-3.42-3.42v-8a3.42,3.42,0,0,1,3.42-3.42Z"/><polyline class="cls-7" points="753.88 438.42 753.88 448.15 737.07 448.15"/><polyline class="cls-7" points="737.6 421.6 753.88 421.6 753.88 433.82"/><polyline class="cls-7" points="703.25 432.22 703.25 421.6 720.6 421.6"/><polyline class="cls-7" points="720.6 448.15 703.25 448.15 703.25 438.42"/><path class="cls-2" d="M82,424.44l-5.72,5.72h-7.2v9.67h6.37l6.26,6.26a1.46,1.46,0,0,0,2.49-1l.29-19.59A1.46,1.46,0,0,0,82,424.44Z"/><path class="cls-2" d="M87.74,425.4c1.57.05,2.67,1.4,3.36,2.68a13.46,13.46,0,0,1,1.42,6.36,13.28,13.28,0,0,1-1.36,6.23c-.69,1.32-1.8,2.75-3.42,2.8-1.24,0-1.25,2,0,1.93,5.08-.15,6.71-6.94,6.71-11s-1.63-10.82-6.71-11a1,1,0,0,0,0,1.93Z"/><path class="cls-2" d="M89.76,421.71c2.29.07,3.9,2,4.91,3.85a20.79,20.79,0,0,1,.09,17.6c-1,1.93-2.64,3.94-5,4-1.24,0-1.24,2,0,1.93,6.74-.19,8.84-9.37,8.84-14.65S96.5,420,89.76,419.78c-1.24,0-1.24,1.89,0,1.93Z"/></g></g></svg>