<svg xmlns="http://www.w3.org/2000/svg" viewBox="0 0 339.55 158.41"><defs><style>.cls-1{fill:#7c7a7a;}.cls-2{fill:#ea7604;}.cls-3{fill:#fff;}.cls-4{fill:#265787;}</style></defs><g id="Capa_2" data-name="Capa 2"><g id="Capa_3" data-name="Capa 3"><path class="cls-1" d="M143.45,104.59H330.18a9.37,9.37,0,0,1,9.37,9.37v0a9.37,9.37,0,0,1-9.37,9.37H143.45a0,0,0,0,1,0,0V104.59A0,0,0,0,1,143.45,104.59Z"/><path class="cls-2" d="M144.5,104.59H274.2a9.37,9.37,0,0,1,9.37,9.37v0a9.37,9.37,0,0,1-9.37,9.37H144.5a1,1,0,0,1-1-1V105.63a1,1,0,0,1,1-1Z"/><rect class="cls-2" width="158.41" height="158.41" rx="79.2"/><rect class="cls-3" x="15.59" y="15.59" width="127.23" height="127.23" rx="63.61"/><path class="cls-2" d="M128.15,81.18A29.44,29.44,0,0,0,124,69.72a31.9,31.9,0,0,0-7.33-8.16h0L85.78,37.84l-.07-.06a6.43,6.43,0,0,0-3.91-1.22,7.15,7.15,0,0,0-4.06,1.22,4.15,4.15,0,0,0-1.95,3.16,3.73,3.73,0,0,0,1.5,3c2,1.57,4,3.17,5.95,4.77s3.91,3.16,5.89,4.72l-37.81,0c-4.33,0-7.27,2-7.88,5.43a5.43,5.43,0,0,0,1.25,4.38,5.84,5.84,0,0,0,4.56,2.06h2.88l12,0h3.81L33.6,90.66l-.14.1A8.62,8.62,0,0,0,30,96.41a5.61,5.61,0,0,0,1.08,4.25,5.9,5.9,0,0,0,4.8,2.16,9.06,9.06,0,0,0,5.65-2.1L60.08,85.56c-.07.74-.17,1.82-.16,2.61A24.39,24.39,0,0,0,61,94a30.42,30.42,0,0,0,6.56,11.36A33.89,33.89,0,0,0,79,113.56a36.93,36.93,0,0,0,15,3.13h0a37,37,0,0,0,15-3.19,34,34,0,0,0,11.46-8.26,30.55,30.55,0,0,0,6.56-11.39,29.34,29.34,0,0,0,1.24-6.36,29,29,0,0,0-.21-6.31Zm-33.76,20c-11.59,0-21-8.4-21-18.78s9.4-18.77,21-18.77,21,8.4,21,18.77S106,101.21,94.39,101.21ZM106.5,80.78a10.49,10.49,0,0,1-3.24,8.1,12.95,12.95,0,0,1-17.77,0,10.48,10.48,0,0,1-3.23-8.09,10.64,10.64,0,0,1,3.84-7.54,13,13,0,0,1,16.55,0,10.68,10.68,0,0,1,3.85,7.53Z"/><path class="cls-2" d="M188,58.53a6.17,6.17,0,0,1-.79,3.08,5.2,5.2,0,0,1-2.65,2.19,6.22,6.22,0,0,1,3.29,2.29,6.12,6.12,0,0,1,1.08,3.55,5.88,5.88,0,0,1-2.53,5.22q-2.53,1.69-7.22,1.7c-1.08,0-2.13,0-3.15-.14a16,16,0,0,1-2.92-.52c-1.08-.31-1.62-.9-1.62-1.78V54.32a1.46,1.46,0,0,1,1.27-1.47,14.51,14.51,0,0,1,2.79-.52c1-.09,2.05-.14,3.21-.14a12.65,12.65,0,0,1,6.8,1.55A5.26,5.26,0,0,1,188,58.53Zm-13.42,4.1h5.26a5.51,5.51,0,0,0,3.69-1.08,3.67,3.67,0,0,0,1.26-2.94q0-3.82-6-3.83c-.91,0-1.69,0-2.34.1s-1.27.15-1.84.25Zm0,2.56v8.35a20.08,20.08,0,0,0,2.15.31c.81.08,1.63.12,2.45.12A9.13,9.13,0,0,0,184,72.9a3.67,3.67,0,0,0,1.66-3.34,3.86,3.86,0,0,0-1.49-3.19,6.92,6.92,0,0,0-4.39-1.18Z"/><path class="cls-2" d="M194,76.23a3.67,3.67,0,0,1-.85.1c-1.1,0-1.66-.47-1.66-1.4V51.07a6,6,0,0,1,.6-.18,3.84,3.84,0,0,1,.83-.09c1.11,0,1.66.46,1.66,1.39V76.05A2.89,2.89,0,0,1,194,76.23Z"/><path class="cls-2" d="M200,69c.7,3.37,2.91,5.06,6.65,5.06a7.66,7.66,0,0,0,2.94-.54,8.69,8.69,0,0,0,2.09-1.16,1.64,1.64,0,0,1,.93,1.47,1.53,1.53,0,0,1-.48,1.05,4.54,4.54,0,0,1-1.32.89,9.32,9.32,0,0,1-1.93.61,11.23,11.23,0,0,1-2.38.24,10,10,0,0,1-7.1-2.44q-2.61-2.45-2.61-7.12a11.08,11.08,0,0,1,.64-3.92,8.47,8.47,0,0,1,1.78-2.93,7.64,7.64,0,0,1,2.72-1.83,9.09,9.09,0,0,1,3.45-.64,8.6,8.6,0,0,1,3.21.58,7.43,7.43,0,0,1,4.19,4.16,8.28,8.28,0,0,1,.6,3.19,1.62,1.62,0,0,1-.39,1.22,1.79,1.79,0,0,1-1.08.44Zm5.34-8.74a5.13,5.13,0,0,0-3.91,1.64,6.85,6.85,0,0,0-1.62,4.7l10.63-1.47a5.64,5.64,0,0,0-1.49-3.5A4.7,4.7,0,0,0,205.35,60.28Z"/><path class="cls-2" d="M226.14,61.32a5,5,0,0,0-3.27-1,8.91,8.91,0,0,0-2.75.39,10.09,10.09,0,0,0-2.05.89V76.05a3.12,3.12,0,0,1-.58.18,3.74,3.74,0,0,1-.85.1c-1.11,0-1.66-.47-1.66-1.4V61.74a2.45,2.45,0,0,1,.33-1.33,3.42,3.42,0,0,1,1.14-1,11.37,11.37,0,0,1,2.67-1.13,13.09,13.09,0,0,1,3.75-.5,8.8,8.8,0,0,1,5.55,1.59,5.94,5.94,0,0,1,2,5V76.05a3.18,3.18,0,0,1-.6.18,3.85,3.85,0,0,1-.83.1c-1.11,0-1.67-.47-1.67-1.4V64.49A3.88,3.88,0,0,0,226.14,61.32Z"/><path class="cls-2" d="M248.63,73.19a1.9,1.9,0,0,1-.33,1.2,3.56,3.56,0,0,1-1,.85,9,9,0,0,1-2.2,1,11,11,0,0,1-3.29.45,12.89,12.89,0,0,1-3.83-.55,7.89,7.89,0,0,1-3-1.68,7.46,7.46,0,0,1-1.93-2.9A13.59,13.59,0,0,1,233,63a8.22,8.22,0,0,1,1.88-3,7.16,7.16,0,0,1,2.78-1.7,10.65,10.65,0,0,1,3.42-.54,9.51,9.51,0,0,1,2.4.31,9.37,9.37,0,0,1,2,.77V51.07a6,6,0,0,1,.6-.18,3.84,3.84,0,0,1,.83-.09c1.11,0,1.67.46,1.67,1.39Zm-3.1-11.56a8.28,8.28,0,0,0-1.78-.93,6.37,6.37,0,0,0-2.32-.39,7,7,0,0,0-2.26.37,4.88,4.88,0,0,0-1.88,1.2A5.92,5.92,0,0,0,236,64.07a9.83,9.83,0,0,0-.48,3.28c0,2.38.56,4.09,1.7,5.15a6.38,6.38,0,0,0,4.52,1.58,7.06,7.06,0,0,0,2.23-.29,7.46,7.46,0,0,0,1.56-.71Z"/><path class="cls-2" d="M253.81,69c.7,3.37,2.91,5.06,6.65,5.06a7.66,7.66,0,0,0,2.94-.54,8.69,8.69,0,0,0,2.09-1.16,1.64,1.64,0,0,1,.93,1.47,1.53,1.53,0,0,1-.48,1.05,4.54,4.54,0,0,1-1.32.89,9.32,9.32,0,0,1-1.93.61,11.23,11.23,0,0,1-2.38.24,10,10,0,0,1-7.1-2.44q-2.61-2.45-2.61-7.12a11.08,11.08,0,0,1,.64-3.92A8.47,8.47,0,0,1,253,60.23a7.64,7.64,0,0,1,2.72-1.83,9.09,9.09,0,0,1,3.45-.64,8.6,8.6,0,0,1,3.21.58,7.43,7.43,0,0,1,4.19,4.16,8.28,8.28,0,0,1,.6,3.19,1.62,1.62,0,0,1-.39,1.22,1.79,1.79,0,0,1-1.08.44Zm5.34-8.74a5.13,5.13,0,0,0-3.91,1.64,6.85,6.85,0,0,0-1.62,4.7l10.63-1.47a5.64,5.64,0,0,0-1.49-3.5A4.7,4.7,0,0,0,259.15,60.28Z"/><path class="cls-2" d="M271.87,76.05a3.12,3.12,0,0,1-.58.18,3.74,3.74,0,0,1-.85.1c-1.11,0-1.66-.47-1.66-1.4V61.82a2.63,2.63,0,0,1,.33-1.41,3.44,3.44,0,0,1,1.1-1,9.82,9.82,0,0,1,2.73-1.14,14,14,0,0,1,3.88-.49c2.06,0,3.1.52,3.1,1.55a2.08,2.08,0,0,1-.12.71,1.77,1.77,0,0,1-.31.56c-.26,0-.59-.1-1-.15a10.46,10.46,0,0,0-1.24-.08,11.74,11.74,0,0,0-3.13.37,9.7,9.7,0,0,0-2.25.87Z"/><path class="cls-4" d="M106.5,80.78a10.49,10.49,0,0,1-3.24,8.1,12.95,12.95,0,0,1-17.77,0,10.48,10.48,0,0,1-3.23-8.09,10.64,10.64,0,0,1,3.84-7.54,13,13,0,0,1,16.55,0,10.68,10.68,0,0,1,3.85,7.53Z"/></g></g></svg>