<svg xmlns="http://www.w3.org/2000/svg" xmlns:xlink="http://www.w3.org/1999/xlink" viewBox="0 0 339.55 158.41"><defs><style>.cls-1{fill:none;}.cls-2{fill:#7c7a7a;}.cls-3{fill:#e87339;}.cls-4{fill:#fff;}.cls-5{clip-path:url(#clip-path);}.cls-6{fill:#2b323a;}.cls-7{fill:#414b57;}.cls-8{fill:#f0e1c0;}.cls-9{fill:#374555;}.cls-10{fill:#b48381;}.cls-11{fill:#eeb09b;}</style><clipPath id="clip-path"><rect class="cls-1" x="15.59" y="15.59" width="127.23" height="127.23" rx="63.61"/></clipPath></defs><g id="Capa_2" data-name="Capa 2"><g id="Capa_3" data-name="Capa 3"><path class="cls-2" d="M143.45,104.59H330.18a9.37,9.37,0,0,1,9.37,9.37v0a9.37,9.37,0,0,1-9.37,9.37H143.45a0,0,0,0,1,0,0V104.59a0,0,0,0,1,0,0Z"/><path class="cls-3" d="M144.68,104.59H268.34a9.37,9.37,0,0,1,9.37,9.37v0a9.37,9.37,0,0,1-9.37,9.37H144.68a1.22,1.22,0,0,1-1.22-1.22V105.81a1.22,1.22,0,0,1,1.22-1.22Z"/><rect class="cls-3" width="158.41" height="158.41" rx="79.2"/><rect class="cls-4" x="15.59" y="15.59" width="127.23" height="127.23" rx="63.61"/><path class="cls-3" d="M179.43,74.7a5.79,5.79,0,0,0,3.92-1.17,3.88,3.88,0,0,0,1.34-3,3.54,3.54,0,0,0-1-2.63,7.76,7.76,0,0,0-3.23-1.66l-3.36-1A8.94,8.94,0,0,1,173.18,63a5.29,5.29,0,0,1-1.41-3.87,6,6,0,0,1,.56-2.65,5.43,5.43,0,0,1,1.6-2,7.63,7.63,0,0,1,2.5-1.26,11,11,0,0,1,3.27-.45,15.34,15.34,0,0,1,2.88.26,10.27,10.27,0,0,1,2.32.69,5.19,5.19,0,0,1,1.53,1,1.55,1.55,0,0,1,.27,2,2,2,0,0,1-.7.62,9.62,9.62,0,0,0-2.61-1.36,10.62,10.62,0,0,0-3.58-.58,5.92,5.92,0,0,0-3.58,1,3.19,3.19,0,0,0-1.29,2.71,2.85,2.85,0,0,0,.93,2.2A7.78,7.78,0,0,0,179,62.83l2.36.7A12,12,0,0,1,186.14,66a5.76,5.76,0,0,1,1.76,4.47,6.21,6.21,0,0,1-2.21,5,9.35,9.35,0,0,1-6.26,1.9A15.88,15.88,0,0,1,176.2,77a10.6,10.6,0,0,1-2.48-.82,5.27,5.27,0,0,1-1.58-1.1,1.74,1.74,0,0,1-.57-1.18,1.58,1.58,0,0,1,.41-1.1,2.32,2.32,0,0,1,1-.64,7.34,7.34,0,0,0,1,.87,7.75,7.75,0,0,0,1.43.81,9.25,9.25,0,0,0,1.82.6A9.55,9.55,0,0,0,179.43,74.7Z"/><path class="cls-3" d="M192.3,76.93a3.6,3.6,0,0,1-.85.1c-1.11,0-1.66-.47-1.66-1.4V51.77a6,6,0,0,1,.6-.18,4,4,0,0,1,.87-.09c1.08,0,1.63.46,1.63,1.39V66.81l8.46-8.19a2.48,2.48,0,0,1,1.46.44,1.28,1.28,0,0,1,.52,1.06,1.43,1.43,0,0,1-.35,1,11.36,11.36,0,0,1-.93,1l-6.23,5.45,8.63,7.74a2.26,2.26,0,0,1-.52,1.35,1.49,1.49,0,0,1-1.18.5,2,2,0,0,1-1.07-.29,4.46,4.46,0,0,1-1-.83l-7.81-7.85v8.66A3.27,3.27,0,0,1,192.3,76.93Z"/><path class="cls-3" d="M207.47,69.72q1,5.06,6.65,5.06a7.7,7.7,0,0,0,2.94-.54,8.89,8.89,0,0,0,2.09-1.16,1.64,1.64,0,0,1,.93,1.47,1.55,1.55,0,0,1-.49,1,4.48,4.48,0,0,1-1.31.89,9.23,9.23,0,0,1-1.94.61,11.06,11.06,0,0,1-2.37.24,10,10,0,0,1-7.1-2.44q-2.61-2.45-2.61-7.12a11.08,11.08,0,0,1,.64-3.92,8.45,8.45,0,0,1,1.77-2.93,7.68,7.68,0,0,1,2.73-1.83,9.07,9.07,0,0,1,3.44-.64,8.6,8.6,0,0,1,3.21.58,7.44,7.44,0,0,1,2.54,1.65,7.64,7.64,0,0,1,1.66,2.51,8.28,8.28,0,0,1,.6,3.19,1.62,1.62,0,0,1-.39,1.22,1.81,1.81,0,0,1-1.08.44ZM212.81,61a5.11,5.11,0,0,0-3.91,1.64,6.92,6.92,0,0,0-1.63,4.7l10.64-1.47a5.64,5.64,0,0,0-1.49-3.5A4.7,4.7,0,0,0,212.81,61Z"/><path class="cls-3" d="M228.55,77.34a7.38,7.38,0,0,1-4.39-1.2,4.54,4.54,0,0,1-1.69-4V53.78a4.42,4.42,0,0,1,.6-.17,3.46,3.46,0,0,1,.87-.1c1.09,0,1.63.46,1.63,1.39v4.45h6.34a2.35,2.35,0,0,1,.23.52,2.09,2.09,0,0,1,.12.72c0,.87-.39,1.31-1.16,1.31h-5.53V72a2.55,2.55,0,0,0,.87,2.19,4.13,4.13,0,0,0,2.45.63,5.56,5.56,0,0,0,1.47-.23,6.1,6.1,0,0,0,1.36-.54,2.71,2.71,0,0,1,.42.58,1.62,1.62,0,0,1,.2.81,1.59,1.59,0,0,1-1,1.39A5.93,5.93,0,0,1,228.55,77.34Z"/><path class="cls-3" d="M241.62,61.05a6.5,6.5,0,0,0-2.44.45,5.13,5.13,0,0,0-1.93,1.31A6.27,6.27,0,0,0,236,65a8.72,8.72,0,0,0-.46,3A7.11,7.11,0,0,0,237.17,73a5.81,5.81,0,0,0,4.45,1.76,7.32,7.32,0,0,0,2.71-.44,10.65,10.65,0,0,0,1.93-1,2.36,2.36,0,0,1,.7.58,1.37,1.37,0,0,1,.27.85,1.44,1.44,0,0,1-.43,1,3.6,3.6,0,0,1-1.18.81,8.12,8.12,0,0,1-1.78.56,11,11,0,0,1-2.22.22,11.32,11.32,0,0,1-3.71-.59A7.76,7.76,0,0,1,235,75,7.91,7.91,0,0,1,233,72.1a11.44,11.44,0,0,1-.69-4.16,10.6,10.6,0,0,1,.73-4.12,8.77,8.77,0,0,1,2-3,8.05,8.05,0,0,1,2.92-1.8,10.63,10.63,0,0,1,3.58-.6,11.19,11.19,0,0,1,2.23.21,6.76,6.76,0,0,1,1.75.6,3.73,3.73,0,0,1,1.15.87,1.54,1.54,0,0,1,.4,1,1.28,1.28,0,0,1-.27.81,1.75,1.75,0,0,1-.69.54,11,11,0,0,0-1.86-1A6.72,6.72,0,0,0,241.62,61.05Z"/><path class="cls-3" d="M251.52,76.93a3.74,3.74,0,0,1-.85.1c-1.11,0-1.66-.47-1.66-1.4V51.77a6,6,0,0,1,.6-.18,4,4,0,0,1,.87-.09c1.08,0,1.62.46,1.62,1.39v7a11.79,11.79,0,0,1,2.19-1,8.6,8.6,0,0,1,2.84-.43,9.53,9.53,0,0,1,3,.43,6.18,6.18,0,0,1,2.3,1.29,6,6,0,0,1,1.51,2.21,8.23,8.23,0,0,1,.54,3.11V76.75a3.18,3.18,0,0,1-.6.18,3.85,3.85,0,0,1-.83.1c-1.11,0-1.67-.47-1.67-1.4v-10a4.33,4.33,0,0,0-1.27-3.44A4.9,4.9,0,0,0,256.7,61a6.48,6.48,0,0,0-2.53.49,8.29,8.29,0,0,0-2.07,1.18V76.75A3.12,3.12,0,0,1,251.52,76.93Z"/><path class="cls-3" d="M275.31,58.46a9.31,9.31,0,0,1,3.32.58,7.43,7.43,0,0,1,2.69,1.74,7.83,7.83,0,0,1,1.78,2.94,12.28,12.28,0,0,1,.64,4.18,12.08,12.08,0,0,1-.66,4.21,7.81,7.81,0,0,1-1.84,2.94,7.14,7.14,0,0,1-2.84,1.72,11.14,11.14,0,0,1-3.63.57,12.13,12.13,0,0,1-3.43-.45,11,11,0,0,1-2.49-1,3.52,3.52,0,0,1-1.12-1,2.34,2.34,0,0,1-.31-1.3V51.77a6,6,0,0,1,.6-.18,4,4,0,0,1,.87-.09c1.08,0,1.62.46,1.62,1.39v6.92a9.59,9.59,0,0,1,2-.94A8.55,8.55,0,0,1,275.31,58.46ZM274.84,61a5.89,5.89,0,0,0-2.45.49,7.46,7.46,0,0,0-1.88,1.14V73.58a6.26,6.26,0,0,0,1.68.81,7.74,7.74,0,0,0,2.58.39,6.58,6.58,0,0,0,2.37-.4A4.67,4.67,0,0,0,279,73.12a5.74,5.74,0,0,0,1.2-2.15,10,10,0,0,0,.43-3.07,10.22,10.22,0,0,0-.43-3.1,5.54,5.54,0,0,0-1.2-2.14,4.72,4.72,0,0,0-1.84-1.24A6.35,6.35,0,0,0,274.84,61Z"/><path class="cls-3" d="M302.27,67.9a11.6,11.6,0,0,1-.62,3.9,8.66,8.66,0,0,1-1.76,3,7.58,7.58,0,0,1-2.77,1.9,10.34,10.34,0,0,1-7.27,0,7.7,7.7,0,0,1-2.78-1.9,8.25,8.25,0,0,1-1.78-3,11.36,11.36,0,0,1-.62-3.9,11.17,11.17,0,0,1,.64-3.91,8.66,8.66,0,0,1,1.79-3,7.93,7.93,0,0,1,2.79-1.89,10.12,10.12,0,0,1,7.19,0A7.59,7.59,0,0,1,299.85,61a9,9,0,0,1,1.78,3A11.41,11.41,0,0,1,302.27,67.9ZM293.49,61a5.08,5.08,0,0,0-4.14,1.82,7.69,7.69,0,0,0-1.51,5.07A7.75,7.75,0,0,0,289.33,73a5.1,5.1,0,0,0,4.16,1.8A5,5,0,0,0,297.62,73a7.84,7.84,0,0,0,1.47-5.06,7.74,7.74,0,0,0-1.49-5.07A5,5,0,0,0,293.49,61Z"/><path class="cls-3" d="M320.76,67.9a11.6,11.6,0,0,1-.62,3.9,8.66,8.66,0,0,1-1.76,3,7.66,7.66,0,0,1-2.77,1.9,10.34,10.34,0,0,1-7.27,0,7.74,7.74,0,0,1-2.79-1.9,8.39,8.39,0,0,1-1.78-3,11.6,11.6,0,0,1-.62-3.9,11.41,11.41,0,0,1,.64-3.91,8.83,8.83,0,0,1,1.8-3,7.84,7.84,0,0,1,2.79-1.89,10.12,10.12,0,0,1,7.19,0A7.76,7.76,0,0,1,318.34,61a9,9,0,0,1,1.78,3A11.41,11.41,0,0,1,320.76,67.9ZM312,61a5.08,5.08,0,0,0-4.13,1.82,7.69,7.69,0,0,0-1.51,5.07A7.7,7.7,0,0,0,307.82,73a5.08,5.08,0,0,0,4.15,1.8A5,5,0,0,0,316.11,73a7.84,7.84,0,0,0,1.47-5.06,7.74,7.74,0,0,0-1.49-5.07A5,5,0,0,0,312,61Z"/><path class="cls-3" d="M325.24,76.93a3.74,3.74,0,0,1-.85.1c-1.11,0-1.67-.47-1.67-1.4V51.77c.14-.05.33-.11.6-.18a4.17,4.17,0,0,1,.88-.09c1.08,0,1.62.46,1.62,1.39V66.82l8.47-8.2a2.45,2.45,0,0,1,1.45.44,1.28,1.28,0,0,1,.52,1.06,1.38,1.38,0,0,1-.35,1,12.8,12.8,0,0,1-.92,1l-6.23,5.45,8.63,7.74a2.33,2.33,0,0,1-.53,1.35,1.49,1.49,0,0,1-1.18.5,2,2,0,0,1-1.06-.29,4.74,4.74,0,0,1-1-.83l-7.81-7.85v8.66A3.12,3.12,0,0,1,325.24,76.93Z"/><g class="cls-5"><path class="cls-6" d="M82.15,27.92l6.51,20.47H81.59s-1.8-19.74-4.52-23.49a2.33,2.33,0,0,1,3.33,0l.22.21A8.69,8.69,0,0,1,82.15,27.92Z"/><path class="cls-7" d="M81.59,48.39H68.43L75,27.92a6.91,6.91,0,0,1,2.06-3C79.79,28.65,81.59,48.39,81.59,48.39Z"/><path class="cls-8" d="M90.37,111.1c-6.77-26.33-20.19-16.67-24.07,0C59.72,85.18,53.93,94.6,51.18,102L68.43,48.39H88.66L105.06,100c-4.68-10.41-11.29-4.87-14.69,11.14"/><path class="cls-9" d="M107.35,107.15v35.67h-17V111.18c3.4-16.09,10-21.65,14.69-11.2A40.56,40.56,0,0,1,107.35,107.15Z"/><path class="cls-10" d="M90.37,111.18v31.64H66.3V111.18C70.18,94.43,83.6,84.72,90.37,111.18Z"/><path class="cls-11" d="M66.3,111.18v31.64H49.49V107.53a52.36,52.36,0,0,1,1.66-5.4l0-.11C53.93,94.6,59.72,85.13,66.3,111.18Z"/></g></g></g></svg>