<svg xmlns="http://www.w3.org/2000/svg" viewBox="0 0 338.76 158.04"><defs><style>.cls-1{fill:#7c7a7a;}.cls-2{fill:#e34d27;}.cls-3{fill:#fff;}.cls-4{fill:#f4f4f6;}</style></defs><g id="Capa_2" data-name="Capa 2"><g id="Capa_3" data-name="Capa 3"><path class="cls-1" d="M143.12,104.34H329.41a9.34,9.34,0,0,1,9.34,9.34v0a9.34,9.34,0,0,1-9.34,9.34H143.12a0,0,0,0,1,0,0V104.34A0,0,0,0,1,143.12,104.34Z"/><path class="cls-2" d="M145.47,104.34H233a9.34,9.34,0,0,1,9.34,9.34v0A9.34,9.34,0,0,1,233,123H145.47a2.35,2.35,0,0,1-2.35-2.35v-14a2.35,2.35,0,0,1,2.35-2.35Z"/><rect class="cls-2" width="158.04" height="158.04" rx="79.02"/><rect class="cls-3" x="15.55" y="15.55" width="126.93" height="126.93" rx="63.46"/><polygon class="cls-2" points="48.93 122.93 42.24 47.85 115.8 47.85 109.09 122.92 78.97 131.27 48.93 122.93"/><polygon class="cls-4" points="79.02 124.89 103.36 118.14 109.08 53.99 79.02 53.99 79.02 124.89"/><polygon class="cls-4" points="79.02 81.83 66.83 81.83 65.99 72.4 79.02 72.4 79.02 63.2 78.99 63.2 55.93 63.2 56.15 65.67 58.41 91.04 79.02 91.04 79.02 81.83"/><polygon class="cls-4" points="79.02 105.75 78.98 105.76 68.72 102.99 68.07 95.65 63.08 95.65 58.82 95.65 60.11 110.11 78.97 115.34 79.02 115.33 79.02 105.75"/><path class="cls-2" d="M49.08,27.44h4.68v4.63H58V27.44h4.68v14H58V36.76H53.76v4.68H49.08v-14Z"/><path class="cls-2" d="M68.88,32.09H64.76V27.44H77.68v4.65H73.56v9.35H68.88V32.09Z"/><path class="cls-2" d="M79.73,27.44h4.88l3,4.92,3-4.92h4.88v14H90.83V34.51l-3.22,5h-.08l-3.22-5v6.93H79.73Z"/><path class="cls-2" d="M97.82,27.44h4.68v9.38h6.58v4.62H97.82Z"/><polygon class="cls-2" points="78.99 81.83 78.99 91.04 90.33 91.04 89.26 102.98 78.99 105.76 78.99 115.34 97.86 110.11 98 108.55 100.17 84.31 100.39 81.83 97.91 81.83 78.99 81.83"/><polygon class="cls-2" points="78.99 63.2 78.99 68.92 78.99 72.38 78.99 72.4 101.2 72.4 101.2 72.4 101.23 72.4 101.41 70.33 101.83 65.67 102.05 63.2 78.99 63.2"/><path class="cls-2" d="M188.82,76a3.74,3.74,0,0,1-.85.1c-1.14,0-1.7-.48-1.7-1.43V65.33h-12V75.82c-.15.06-.36.11-.62.18a3.74,3.74,0,0,1-.85.1c-1.13,0-1.69-.48-1.69-1.43V52.52a5,5,0,0,1,.59-.18,4,4,0,0,1,.87-.09c1.13,0,1.7.48,1.7,1.42v9h12V52.52a6,6,0,0,1,.6-.18,4,4,0,0,1,.87-.09c1.13,0,1.69.48,1.69,1.42V75.82C189.28,75.88,189.07,75.93,188.82,76Z"/><path class="cls-2" d="M201.63,55.1V75.82a4.16,4.16,0,0,1-.6.18,3.85,3.85,0,0,1-.83.1c-1.13,0-1.7-.48-1.7-1.43V55.1h-7.21a2.87,2.87,0,0,1-.24-.52,2.47,2.47,0,0,1-.11-.75,1.55,1.55,0,0,1,.3-1,1.1,1.1,0,0,1,.89-.37h16.71a2.35,2.35,0,0,1,.23.52,2.08,2.08,0,0,1,.12.71,1.62,1.62,0,0,1-.31,1,1.09,1.09,0,0,1-.89.38Z"/><path class="cls-2" d="M223.47,69.8a2.42,2.42,0,0,1-.72.35,2.76,2.76,0,0,1-1,.16,2.92,2.92,0,0,1-1.1-.2,1.18,1.18,0,0,1-.68-.61c-1.39-2.88-2.58-5.52-3.59-7.91s-1.81-4.38-2.43-6h-.15c-.08,1.93-.16,3.73-.25,5.39s-.19,3.28-.29,4.86-.21,3.18-.31,4.8-.2,3.36-.31,5.21l-.6.16a3.94,3.94,0,0,1-.79.07,1.66,1.66,0,0,1-1.19-.34,1.38,1.38,0,0,1-.35-1c0-.25,0-.81.06-1.66s.09-1.87.17-3.08.16-2.55.25-4,.19-2.95.31-4.47.23-3,.35-4.48.22-2.8.33-4a3,3,0,0,1,.88-.5,3.43,3.43,0,0,1,1.31-.23,2.52,2.52,0,0,1,2.48,1.42c.48,1,1,2.07,1.48,3.19l1.51,3.41c.5,1.16,1,2.3,1.46,3.43s.93,2.22,1.37,3.25h.16c.56-1.37,1.13-2.71,1.69-4l1.66-3.84c.54-1.23,1.06-2.39,1.54-3.47s.93-2.07,1.32-3a2.9,2.9,0,0,1,.89-.29,6,6,0,0,1,1-.09c1.21,0,1.9.41,2.08,1.23.11.46.22,1.23.35,2.3s.26,2.29.38,3.68.26,2.88.37,4.48.23,3.13.33,4.61.19,2.84.27,4.09.14,2.23.19,3a2.83,2.83,0,0,1-1.62.46,1.79,1.79,0,0,1-1-.29,1.34,1.34,0,0,1-.52-1.06c-.13-1.88-.25-3.74-.35-5.59s-.2-3.62-.29-5.29-.17-3.21-.25-4.61-.14-2.59-.19-3.57h-.16c-.28.72-.61,1.53-1,2.43s-.81,1.92-1.31,3.05-1.06,2.41-1.68,3.84S224.24,68.06,223.47,69.8Z"/><path class="cls-2" d="M237.8,75.44a1.64,1.64,0,0,1-.48-1.24V52.52a6,6,0,0,1,.6-.18,4,4,0,0,1,.86-.09c1.14,0,1.7.48,1.7,1.42V73.2h11.08a1.75,1.75,0,0,1,.42,1.27,1.48,1.48,0,0,1-.35,1,1.2,1.2,0,0,1-.92.38H239A1.68,1.68,0,0,1,237.8,75.44Z"/><path class="cls-2" d="M272.9,53a2.35,2.35,0,0,1,.11.71,1.55,1.55,0,0,1-.31,1,1.09,1.09,0,0,1-.88.36h-9.88L261.32,62a10,10,0,0,1,4.32-1,9.84,9.84,0,0,1,3.22.5A7.91,7.91,0,0,1,271.47,63a6.56,6.56,0,0,1,1.75,2.35,7.74,7.74,0,0,1,.64,3.26,8.22,8.22,0,0,1-.58,3.13,6.89,6.89,0,0,1-1.69,2.47,8.19,8.19,0,0,1-2.76,1.64,11.1,11.1,0,0,1-3.73.59,14.3,14.3,0,0,1-3-.29,10.13,10.13,0,0,1-2.33-.75,5,5,0,0,1-1.49-1,1.67,1.67,0,0,1-.52-1.1,1.53,1.53,0,0,1,.41-1.06,2.51,2.51,0,0,1,.83-.64,10.19,10.19,0,0,0,2.39,1.53,8.51,8.51,0,0,0,3.74.75,5.57,5.57,0,0,0,4.13-1.47,5.12,5.12,0,0,0,1.47-3.78,4.57,4.57,0,0,0-1.51-3.66,5.73,5.73,0,0,0-3.93-1.32,6.71,6.71,0,0,0-2.47.43,15.42,15.42,0,0,0-2.09,1,2.81,2.81,0,0,1-1.68-.63,1.86,1.86,0,0,1-.63-1.45c0-.16,0-.36,0-.6s0-.48.06-.71l.65-7.37a2.25,2.25,0,0,1,.5-1.3,1.58,1.58,0,0,1,1.24-.48h11.81A3.91,3.91,0,0,1,272.9,53Z"/></g></g></svg>