<svg xmlns="http://www.w3.org/2000/svg" viewBox="0 0 129.34 156.77"><defs><style>.cls-1{fill:#026581;}</style></defs><g id="Capa_2" data-name="Capa 2"><g id="Capa_3" data-name="Capa 3"><path class="cls-1" d="M2.37,149.6a3.24,3.24,0,0,1-.79.09c-1,0-1.58-.45-1.58-1.33V127.74a4,4,0,0,1,.56-.17,4.1,4.1,0,0,1,.81-.09c1,0,1.54.45,1.54,1.33v20.63C2.79,149.48,2.61,149.54,2.37,149.6Z"/><path class="cls-1" d="M16.54,135.75a4.61,4.61,0,0,0-3-.94,8.26,8.26,0,0,0-2.55.36,9.77,9.77,0,0,0-1.91.83v13.44l-.53.16a3.32,3.32,0,0,1-.8.09c-1,0-1.54-.43-1.54-1.29V136.14a2.26,2.26,0,0,1,.31-1.24,3.2,3.2,0,0,1,1-1,10.94,10.94,0,0,1,2.48-1,12.13,12.13,0,0,1,3.49-.47,8.14,8.14,0,0,1,5.16,1.48,5.52,5.52,0,0,1,1.88,4.63v10.89a5.69,5.69,0,0,1-.56.16,3.25,3.25,0,0,1-.77.09c-1,0-1.54-.43-1.54-1.29v-9.71A3.58,3.58,0,0,0,16.54,135.75Z"/><path class="cls-1" d="M35,145.09a4.28,4.28,0,0,1-1.69,3.59,8,8,0,0,1-4.89,1.3,12.22,12.22,0,0,1-2.51-.24,8.56,8.56,0,0,1-2-.61,4,4,0,0,1-1.26-.86,1.45,1.45,0,0,1-.45-1,1.59,1.59,0,0,1,.24-.83,2,2,0,0,1,.7-.68,11,11,0,0,0,2.26,1.28,7.43,7.43,0,0,0,3,.55c2.49,0,3.73-.83,3.73-2.51,0-1.37-.82-2.25-2.48-2.66l-3-.79a6.52,6.52,0,0,1-3.2-1.67,4,4,0,0,1-1-2.82,4.34,4.34,0,0,1,.38-1.8A4.09,4.09,0,0,1,24,133.84a6,6,0,0,1,2-1,9,9,0,0,1,2.75-.38,9.5,9.5,0,0,1,4.06.74c1,.49,1.55,1.06,1.55,1.71a1.44,1.44,0,0,1-.24.82,1.39,1.39,0,0,1-.63.54,10.88,10.88,0,0,0-1.83-.93,7,7,0,0,0-2.8-.51,4.77,4.77,0,0,0-2.57.61,1.94,1.94,0,0,0-.95,1.73,2,2,0,0,0,.54,1.4,3.48,3.48,0,0,0,1.79.86l2.48.61a7.94,7.94,0,0,1,3.67,1.82A4.36,4.36,0,0,1,35,145.09Z"/><path class="cls-1" d="M42.29,150a6.89,6.89,0,0,1-4.08-1.12,4.22,4.22,0,0,1-1.56-3.7V128.1a3.37,3.37,0,0,1,.55-.17,3.47,3.47,0,0,1,.81-.09c1,0,1.51.43,1.51,1.3v4.13h5.89a2.76,2.76,0,0,1,.22.48,2.09,2.09,0,0,1,.11.67c0,.81-.36,1.22-1.08,1.22H39.52V145a2.34,2.34,0,0,0,.81,2,3.77,3.77,0,0,0,2.28.59,5.07,5.07,0,0,0,1.36-.21,5.89,5.89,0,0,0,1.26-.5,2.23,2.23,0,0,1,.4.53,1.55,1.55,0,0,1,.18.76,1.46,1.46,0,0,1-.94,1.29A5.41,5.41,0,0,1,42.29,150Z"/><path class="cls-1" d="M53.39,132.44a8,8,0,0,1,5,1.4,5.22,5.22,0,0,1,1.83,4.42v8.52a1.93,1.93,0,0,1-.31,1.2,2.85,2.85,0,0,1-.91.77,9.28,9.28,0,0,1-2.28.88,12.37,12.37,0,0,1-3.26.38,8.79,8.79,0,0,1-5.22-1.33,4.42,4.42,0,0,1-1.85-3.84,4.27,4.27,0,0,1,1.54-3.58,8.38,8.38,0,0,1,4.35-1.49l5.1-.5v-1a3.1,3.1,0,0,0-1.08-2.62,4.68,4.68,0,0,0-2.91-.83,9.43,9.43,0,0,0-2.84.43,16.42,16.42,0,0,0-2.37,1,3.64,3.64,0,0,1-.52-.58,1.23,1.23,0,0,1-.23-.72,1.27,1.27,0,0,1,.25-.82,2.53,2.53,0,0,1,.79-.62,9.13,9.13,0,0,1,2.23-.77A13,13,0,0,1,53.39,132.44Zm0,15.2a8.38,8.38,0,0,0,2.5-.31,5.8,5.8,0,0,0,1.42-.59v-5.21l-4.45.47a5.63,5.63,0,0,0-2.77.84,2.3,2.3,0,0,0-.9,2,2.42,2.42,0,0,0,1,2.1A5.44,5.44,0,0,0,53.42,147.64Z"/><path class="cls-1" d="M73.83,147.78a5.2,5.2,0,0,1-1.67.87,7.91,7.91,0,0,1-2.53.36,9.63,9.63,0,0,1-3-.45,6.46,6.46,0,0,1-2.47-1.44,7,7,0,0,1-1.68-2.57,10.36,10.36,0,0,1-.63-3.84,9.7,9.7,0,0,1,.61-3.6,7,7,0,0,1,1.7-2.58A7.12,7.12,0,0,1,66.79,133a11.09,11.09,0,0,1,6.38-.1,8.54,8.54,0,0,1,2.31,1,3.45,3.45,0,0,1,.88.81,1.74,1.74,0,0,1,.35,1.09v14.45a6.91,6.91,0,0,1-.6,3,5.09,5.09,0,0,1-1.65,2,7.08,7.08,0,0,1-2.5,1.14,12.71,12.71,0,0,1-3.09.36,11.07,11.07,0,0,1-3.1-.38,7.68,7.68,0,0,1-1.75-.67A1.76,1.76,0,0,1,63,154.18a1.44,1.44,0,0,1,.23-.85,1.56,1.56,0,0,1,.59-.52,7.57,7.57,0,0,0,2.12,1.06,8.71,8.71,0,0,0,3,.49,5.73,5.73,0,0,0,3.69-1,4,4,0,0,0,1.27-3.28ZM70,146.63a5.47,5.47,0,0,0,2.35-.44,6.19,6.19,0,0,0,1.53-1v-9.34a6.64,6.64,0,0,0-1.53-.7,7,7,0,0,0-2.17-.31,5.25,5.25,0,0,0-3.9,1.48,6,6,0,0,0-1.45,4.38,8.51,8.51,0,0,0,.39,2.75,5,5,0,0,0,1.1,1.85,4.1,4.1,0,0,0,1.65,1A6.17,6.17,0,0,0,70,146.63Z"/><path class="cls-1" d="M82.2,149.44c-.12,0-.3.1-.54.16a3.24,3.24,0,0,1-.79.09c-1,0-1.54-.43-1.54-1.29V136.22a2.51,2.51,0,0,1,.3-1.32,3.44,3.44,0,0,1,1-1,9.2,9.2,0,0,1,2.53-1.06,13.36,13.36,0,0,1,3.61-.45q2.88,0,2.88,1.44a2,2,0,0,1-.11.66,1.69,1.69,0,0,1-.29.53q-.36-.07-.93-.15a9,9,0,0,0-1.15-.07,11,11,0,0,0-2.91.34,9.31,9.31,0,0,0-2.09.81Z"/><path class="cls-1" d="M96.07,132.44a8,8,0,0,1,5,1.4,5.22,5.22,0,0,1,1.83,4.42v8.52a1.93,1.93,0,0,1-.31,1.2,2.85,2.85,0,0,1-.91.77,9.28,9.28,0,0,1-2.28.88,12.34,12.34,0,0,1-3.25.38,8.81,8.81,0,0,1-5.23-1.33A4.42,4.42,0,0,1,89,144.84a4.27,4.27,0,0,1,1.54-3.58,8.38,8.38,0,0,1,4.35-1.49l5.1-.5v-1a3.1,3.1,0,0,0-1.08-2.62,4.68,4.68,0,0,0-2.91-.83,9.31,9.31,0,0,0-2.83.43,16.11,16.11,0,0,0-2.38,1,3.64,3.64,0,0,1-.52-.58,1.23,1.23,0,0,1-.23-.72,1.27,1.27,0,0,1,.25-.82,2.53,2.53,0,0,1,.79-.62,9.13,9.13,0,0,1,2.23-.77A13,13,0,0,1,96.07,132.44Zm0,15.2a8.36,8.36,0,0,0,2.49-.31,5.8,5.8,0,0,0,1.42-.59v-5.21l-4.45.47a5.63,5.63,0,0,0-2.77.84,2.3,2.3,0,0,0-.9,2,2.42,2.42,0,0,0,1,2.1A5.46,5.46,0,0,0,96.11,147.64Z"/><path class="cls-1" d="M125.46,135.64a4.13,4.13,0,0,0-2.7-.83,6,6,0,0,0-4.16,1.66,5.46,5.46,0,0,1,.21,1.54v11.43a5.69,5.69,0,0,1-.56.16,3.25,3.25,0,0,1-.77.09c-1,0-1.54-.43-1.54-1.29V138.23a3.16,3.16,0,0,0-1-2.59,4.18,4.18,0,0,0-2.73-.83,6.46,6.46,0,0,0-2.17.36,8.16,8.16,0,0,0-1.75.83v13.44l-.53.16a3.29,3.29,0,0,1-.79.09c-1,0-1.55-.43-1.55-1.29V136.14a2.14,2.14,0,0,1,.31-1.2,3.54,3.54,0,0,1,1.06-1,9.81,9.81,0,0,1,2.46-1.06,10.29,10.29,0,0,1,3-.45,8.87,8.87,0,0,1,3.12.52,4.81,4.81,0,0,1,2.09,1.42,7.85,7.85,0,0,1,2.33-1.38,8.66,8.66,0,0,1,3.2-.56,7.14,7.14,0,0,1,4.63,1.39,5.12,5.12,0,0,1,1.73,4.25v11.36c-.12,0-.31.1-.56.16a3.31,3.31,0,0,1-.77.09c-1,0-1.55-.43-1.55-1.29V138.23A3.15,3.15,0,0,0,125.46,135.64Z"/><path class="cls-1" d="M64.4,108.24a54.12,54.12,0,1,1,54.12-54.12A54.18,54.18,0,0,1,64.4,108.24Zm0-103.1a49,49,0,1,0,49,49A49,49,0,0,0,64.4,5.14Zm18.25,27a4,4,0,1,0,4,4A4,4,0,0,0,82.65,32.16ZM64.84,37.3A16.82,16.82,0,1,0,81.67,54.12,16.84,16.84,0,0,0,64.84,37.3Zm0,27.6A10.78,10.78,0,1,1,75.62,54.12,10.79,10.79,0,0,1,64.84,64.9Zm34-24.76A20.52,20.52,0,0,0,78.27,19.62H51.19A20.52,20.52,0,0,0,30.67,40.14V67.22A20.52,20.52,0,0,0,51.19,87.74H78.27A20.52,20.52,0,0,0,98.79,67.22ZM92.36,67.22A14.09,14.09,0,0,1,78.27,81.31H51.19A14.08,14.08,0,0,1,37.1,67.22V40.14A14.09,14.09,0,0,1,51.19,26.05H78.27A14.09,14.09,0,0,1,92.36,40.14Z"/></g></g></svg>