<svg xmlns="http://www.w3.org/2000/svg" viewBox="0 0 108.77 147"><defs><style>.cls-1{fill:#026581;}</style></defs><g id="Capa_2" data-name="Capa 2"><g id="Capa_3" data-name="Capa 3"><path class="cls-1" d="M36.33,144a1.6,1.6,0,0,1-.38,1.08,4,4,0,0,1-1.13.83,10.55,10.55,0,0,1-2.48.75,15.59,15.59,0,0,1-3.2.33,14.5,14.5,0,0,1-4.59-.69A9.62,9.62,0,0,1,21,144.2a9.31,9.31,0,0,1-2.33-3.54,14,14,0,0,1-.83-5,13.62,13.62,0,0,1,.86-5A9.94,9.94,0,0,1,21,127a9.63,9.63,0,0,1,3.46-2.12,12.44,12.44,0,0,1,4.21-.7,14.23,14.23,0,0,1,2.78.25,10.27,10.27,0,0,1,2.18.66A5.22,5.22,0,0,1,35,126a1.47,1.47,0,0,1,.5,1,1.35,1.35,0,0,1-.29.86,1.85,1.85,0,0,1-.68.54,14.42,14.42,0,0,0-2.3-1.21,8.94,8.94,0,0,0-3.41-.55,8.79,8.79,0,0,0-3.2.57,7.11,7.11,0,0,0-2.55,1.69,7.8,7.8,0,0,0-1.69,2.8,12.86,12.86,0,0,0,0,7.89,7.24,7.24,0,0,0,1.76,2.75,7.12,7.12,0,0,0,2.66,1.6,10.41,10.41,0,0,0,3.32.52,13.5,13.5,0,0,0,2.44-.22,6.69,6.69,0,0,0,1.8-.54v-6.61H28a2.18,2.18,0,0,1-.22-.48,2.09,2.09,0,0,1-.11-.67A1.46,1.46,0,0,1,28,135a1,1,0,0,1,.83-.34h6a1.57,1.57,0,0,1,1.09.41,1.42,1.42,0,0,1,.45,1.1Z"/><path class="cls-1" d="M58.93,132.63a4.13,4.13,0,0,0-2.7-.83,6.06,6.06,0,0,0-4.16,1.66,5.46,5.46,0,0,1,.21,1.54v11.43a4,4,0,0,1-.55.16,3.39,3.39,0,0,1-.78.09c-1,0-1.54-.43-1.54-1.29V135.22a3.16,3.16,0,0,0-1-2.59,4.18,4.18,0,0,0-2.73-.83,6.46,6.46,0,0,0-2.17.36,8.39,8.39,0,0,0-1.75.83v13.44a4,4,0,0,1-.53.16,3.29,3.29,0,0,1-.79.09c-1,0-1.55-.43-1.55-1.29V133.13a2.14,2.14,0,0,1,.31-1.2,3.54,3.54,0,0,1,1.06-1,9.81,9.81,0,0,1,2.46-1.06,10.29,10.29,0,0,1,3-.45,8.87,8.87,0,0,1,3.12.52,4.81,4.81,0,0,1,2.09,1.42A7.85,7.85,0,0,1,53.25,130a8.66,8.66,0,0,1,3.2-.56,7.14,7.14,0,0,1,4.63,1.39,5.12,5.12,0,0,1,1.73,4.25v11.36a4.22,4.22,0,0,1-.56.16,3.31,3.31,0,0,1-.77.09c-1,0-1.55-.43-1.55-1.29V135.22A3.15,3.15,0,0,0,58.93,132.63Z"/><path class="cls-1" d="M71.4,129.43a8,8,0,0,1,4.95,1.4,5.2,5.2,0,0,1,1.84,4.42v8.52a2,2,0,0,1-.31,1.2,2.79,2.79,0,0,1-.92.77,9,9,0,0,1-2.28.88,12.29,12.29,0,0,1-3.25.38,8.85,8.85,0,0,1-5.23-1.33,4.44,4.44,0,0,1-1.85-3.84,4.28,4.28,0,0,1,1.55-3.58,8.38,8.38,0,0,1,4.35-1.49l5.1-.5v-1a3.1,3.1,0,0,0-1.08-2.62,4.68,4.68,0,0,0-2.91-.83,9.38,9.38,0,0,0-2.84.43,15.53,15.53,0,0,0-2.37,1,3.21,3.21,0,0,1-.52-.58,1.17,1.17,0,0,1-.23-.72,1.27,1.27,0,0,1,.25-.82,2.28,2.28,0,0,1,.79-.61,8.6,8.6,0,0,1,2.23-.78A12.89,12.89,0,0,1,71.4,129.43Zm0,15.2a8.38,8.38,0,0,0,2.5-.31,5.8,5.8,0,0,0,1.42-.59v-5.21l-4.46.47a5.59,5.59,0,0,0-2.76.84,2.3,2.3,0,0,0-.9,2,2.4,2.4,0,0,0,1,2.1A5.42,5.42,0,0,0,71.43,144.63Z"/><path class="cls-1" d="M80.48,124.65a1.76,1.76,0,0,1,.52-1.27,1.82,1.82,0,0,1,1.35-.52,1.8,1.8,0,1,1,0,3.59,1.82,1.82,0,0,1-1.35-.52A1.77,1.77,0,0,1,80.48,124.65Zm3.31,21.78a4.21,4.21,0,0,1-.54.16,3.24,3.24,0,0,1-.79.09c-1,0-1.54-.43-1.54-1.29V130a4,4,0,0,1,.55-.16,3.47,3.47,0,0,1,.81-.09c1,0,1.51.44,1.51,1.33Z"/><path class="cls-1" d="M89.39,146.59a3.24,3.24,0,0,1-.79.09c-1,0-1.54-.43-1.54-1.29V123.22a3.8,3.8,0,0,1,.56-.16,3.25,3.25,0,0,1,.77-.09c1,0,1.54.43,1.54,1.29v22.17A4.21,4.21,0,0,1,89.39,146.59Z"/><path class="cls-1" d="M54.38,108.77a54.39,54.39,0,1,1,54.39-54.39A54.45,54.45,0,0,1,54.38,108.77Zm0-102.92a48.53,48.53,0,1,0,48.53,48.53A48.58,48.58,0,0,0,54.38,5.85Z"/><path class="cls-1" d="M29.07,79.69H24.86a4.22,4.22,0,0,1-4.22-4.22V33.29a4.22,4.22,0,1,1,8.43,0Z"/><path class="cls-1" d="M79.69,79.69h4.22a4.22,4.22,0,0,0,4.22-4.22V33.29a4.22,4.22,0,1,0-8.44,0Z"/><path class="cls-1" d="M86.33,36.75a4.22,4.22,0,0,0-4.84-6.92L54.39,49.57h0L27.27,29.83a4.22,4.22,0,0,0-4.83,6.92h0l-.11-.08L54.38,60M86.44,36.67,54.38,60"/><path class="cls-1" d="M24.86,32.66H83.91c1.57,0,1.57-3.59,0-3.59h-59c-1.57,0-1.58,3.59,0,3.59Z"/><path class="cls-1" d="M24.86,79.69H83.91c1.57,0,1.57-3.59,0-3.59h-59c-1.57,0-1.58,3.59,0,3.59Z"/></g></g></svg>