<svg xmlns="http://www.w3.org/2000/svg" viewBox="0 0 58.71 58.71"><defs><style>.cls-1{fill:#026581;}</style></defs><g id="Capa_2" data-name="Capa 2"><g id="Capa_1-2" data-name="Capa 1"><path class="cls-1" d="M54.32,29.37A25.22,25.22,0,0,1,38,52.83a25.31,25.31,0,0,1-28-7.58A25,25,0,0,1,34.15,4.83,25.32,25.32,0,0,1,54,25.57a24.12,24.12,0,0,1,.28,3.8c0,2.82,4.4,2.83,4.39,0A29.73,29.73,0,0,0,39.27,1.72,29.58,29.58,0,0,0,6.72,10.6,29.69,29.69,0,0,0,4.15,44.53,29.38,29.38,0,0,0,58.3,34.18a32.3,32.3,0,0,0,.41-4.81C58.72,26.54,54.33,26.54,54.32,29.37Z"/><path class="cls-1" d="M14.53,17.68,37.77,40.91,41,44.16c2,2,5.11-1.1,3.11-3.1L20.88,17.82l-3.24-3.25c-2-2-5.11,1.11-3.11,3.11Z"/><path class="cls-1" d="M41,14.57,17.78,37.81l-3.25,3.25c-2,2,1.1,5.1,3.11,3.1L40.87,20.93l3.25-3.25c2-2-1.1-5.11-3.11-3.11Z"/></g></g></svg>