<svg xmlns="http://www.w3.org/2000/svg" viewBox="0 0 112.09 147"><defs><style>.cls-1{fill:#026581;}</style></defs><g id="Capa_2" data-name="Capa 2"><g id="Capa_3" data-name="Capa 3"><path class="cls-1" d="M15.34,130.15A5.78,5.78,0,0,1,14.6,133a4.82,4.82,0,0,1-2.46,2,5.76,5.76,0,0,1,3.06,2.14,5.62,5.62,0,0,1,1,3.28,5.43,5.43,0,0,1-2.35,4.85,11.92,11.92,0,0,1-6.7,1.58c-1,0-2,0-2.93-.12a15.48,15.48,0,0,1-2.71-.49C.5,146,0,145.44,0,144.63v-18.4a1.36,1.36,0,0,1,1.19-1.36,13.1,13.1,0,0,1,2.58-.48c.91-.09,1.91-.13,3-.13a11.77,11.77,0,0,1,6.33,1.44A4.88,4.88,0,0,1,15.34,130.15ZM2.87,134H7.76a5.13,5.13,0,0,0,3.43-1,3.41,3.41,0,0,0,1.17-2.73q0-3.56-5.61-3.55c-.83,0-1.56,0-2.17.09s-1.18.13-1.71.23Zm0,2.37v7.76a18,18,0,0,0,2,.29c.75.07,1.51.11,2.28.11a8.46,8.46,0,0,0,4.53-1,3.43,3.43,0,0,0,1.54-3.11,3.58,3.58,0,0,0-1.38-3,6.47,6.47,0,0,0-4.08-1.1Z"/><path class="cls-1" d="M20.26,139.89c.65,3.14,2.71,4.7,6.18,4.7a7,7,0,0,0,2.73-.5A7.52,7.52,0,0,0,31.11,143a1.53,1.53,0,0,1,.87,1.37,1.4,1.4,0,0,1-.45,1,4.07,4.07,0,0,1-1.23.83,8.57,8.57,0,0,1-1.79.57,11,11,0,0,1-2.21.22,9.26,9.26,0,0,1-6.59-2.27q-2.43-2.26-2.43-6.61a10.63,10.63,0,0,1,.59-3.65,8,8,0,0,1,1.66-2.71,7,7,0,0,1,2.53-1.7,8.4,8.4,0,0,1,3.2-.6,8.06,8.06,0,0,1,3,.54,6.83,6.83,0,0,1,2.35,1.53,7.15,7.15,0,0,1,1.55,2.33,7.74,7.74,0,0,1,.55,3,1.52,1.52,0,0,1-.36,1.13,1.61,1.61,0,0,1-1,.41Zm5-8.12a4.77,4.77,0,0,0-3.63,1.53,6.35,6.35,0,0,0-1.51,4.36L30,136.3A5.31,5.31,0,0,0,28.58,133,4.39,4.39,0,0,0,25.22,131.77Z"/><path class="cls-1" d="M36.57,146.59a3.24,3.24,0,0,1-.79.09c-1,0-1.54-.43-1.54-1.29V123.22a3.8,3.8,0,0,1,.56-.16,3.44,3.44,0,0,1,.8-.09c1,0,1.51.43,1.51,1.29v6.47a10.66,10.66,0,0,1,2-.9,8,8,0,0,1,2.64-.4,8.78,8.78,0,0,1,2.75.4,5.69,5.69,0,0,1,2.14,1.2,5.38,5.38,0,0,1,1.4,2.05,7.58,7.58,0,0,1,.5,2.89v10.46a4,4,0,0,1-.55.16,3.31,3.31,0,0,1-.77.09c-1,0-1.55-.43-1.55-1.29V136a4,4,0,0,0-1.19-3.19,4.53,4.53,0,0,0-3.12-1,6.11,6.11,0,0,0-2.35.45,8,8,0,0,0-1.93,1.1v13.08A4.21,4.21,0,0,1,36.57,146.59Z"/><path class="cls-1" d="M57.16,129.43a8,8,0,0,1,5,1.4A5.22,5.22,0,0,1,64,135.25v8.52a2,2,0,0,1-.3,1.2,2.89,2.89,0,0,1-.92.77,9.28,9.28,0,0,1-2.28.88,12.34,12.34,0,0,1-3.25.38A8.83,8.83,0,0,1,52,145.67a4.44,4.44,0,0,1-1.85-3.84,4.27,4.27,0,0,1,1.54-3.58A8.38,8.38,0,0,1,56,136.76l5.1-.5v-1A3.12,3.12,0,0,0,60,132.63a4.68,4.68,0,0,0-2.91-.83,9.33,9.33,0,0,0-2.84.43,15.53,15.53,0,0,0-2.37,1,3.26,3.26,0,0,1-.53-.58,1.23,1.23,0,0,1-.23-.72,1.27,1.27,0,0,1,.25-.82,2.38,2.38,0,0,1,.79-.61,8.73,8.73,0,0,1,2.23-.78A13,13,0,0,1,57.16,129.43Zm0,15.2a8.36,8.36,0,0,0,2.49-.31,5.63,5.63,0,0,0,1.42-.59v-5.21l-4.45.47a5.63,5.63,0,0,0-2.77.84,2.3,2.3,0,0,0-.9,2,2.41,2.41,0,0,0,1,2.1A5.4,5.4,0,0,0,57.2,144.63Z"/><path class="cls-1" d="M76.87,132.74a4.66,4.66,0,0,0-3-.94,8.26,8.26,0,0,0-2.55.36,9.41,9.41,0,0,0-1.9.83v13.44a4.21,4.21,0,0,1-.54.16,3.29,3.29,0,0,1-.79.09c-1,0-1.55-.43-1.55-1.29V133.13a2.26,2.26,0,0,1,.31-1.24,3.15,3.15,0,0,1,1.06-.95,10.74,10.74,0,0,1,2.48-1,12.06,12.06,0,0,1,3.48-.47A8.14,8.14,0,0,1,79,130.91a5.52,5.52,0,0,1,1.88,4.63v10.89a4,4,0,0,1-.55.16,3.39,3.39,0,0,1-.78.09c-1,0-1.54-.43-1.54-1.29v-9.71A3.6,3.6,0,0,0,76.87,132.74Z"/><path class="cls-1" d="M91.26,131.84a6.23,6.23,0,0,0-2.27.41,5,5,0,0,0-1.79,1.23,5.53,5.53,0,0,0-1.19,2,8,8,0,0,0-.43,2.74A6.62,6.62,0,0,0,87.12,143a5.42,5.42,0,0,0,4.14,1.63,6.56,6.56,0,0,0,2.51-.41,9.55,9.55,0,0,0,1.8-1,1.88,1.88,0,0,1,.64.54,1.22,1.22,0,0,1,.25.79,1.35,1.35,0,0,1-.39.93,3.38,3.38,0,0,1-1.1.76,7.64,7.64,0,0,1-1.65.52,10.21,10.21,0,0,1-2.06.2,10.58,10.58,0,0,1-3.45-.54,7.22,7.22,0,0,1-4.53-4.33,10.52,10.52,0,0,1-.65-3.87,9.76,9.76,0,0,1,.69-3.82,8,8,0,0,1,1.83-2.75A7.4,7.4,0,0,1,87.86,130a9.85,9.85,0,0,1,3.32-.56,10.31,10.31,0,0,1,2.07.2,6.1,6.1,0,0,1,1.63.56,3.4,3.4,0,0,1,1.06.81,1.37,1.37,0,0,1,.38.91,1.2,1.2,0,0,1-.25.76,1.72,1.72,0,0,1-.65.5,10.11,10.11,0,0,0-1.72-.94A6.42,6.42,0,0,0,91.26,131.84Z"/><path class="cls-1" d="M99.66,139.89c.65,3.14,2.71,4.7,6.18,4.7a7,7,0,0,0,2.73-.5,7.52,7.52,0,0,0,1.94-1.08,1.53,1.53,0,0,1,.87,1.37,1.45,1.45,0,0,1-.45,1,4.07,4.07,0,0,1-1.23.83,8.57,8.57,0,0,1-1.79.57,11,11,0,0,1-2.21.22,9.26,9.26,0,0,1-6.59-2.27q-2.43-2.26-2.43-6.61a10.63,10.63,0,0,1,.59-3.65,8,8,0,0,1,1.66-2.71,7,7,0,0,1,2.53-1.7,8.4,8.4,0,0,1,3.2-.6,8.06,8.06,0,0,1,3,.54A6.83,6.83,0,0,1,110,131.5a7.15,7.15,0,0,1,1.55,2.33,7.74,7.74,0,0,1,.55,3,1.52,1.52,0,0,1-.36,1.13,1.61,1.61,0,0,1-1,.41Zm5-8.12A4.77,4.77,0,0,0,101,133.3a6.35,6.35,0,0,0-1.51,4.36l9.88-1.36A5.31,5.31,0,0,0,108,133,4.39,4.39,0,0,0,104.62,131.77Z"/><path class="cls-1" d="M55.18,108.77a54.39,54.39,0,1,1,54.39-54.39A54.45,54.45,0,0,1,55.18,108.77Zm0-102.92a48.53,48.53,0,1,0,48.54,48.53A48.58,48.58,0,0,0,55.18,5.85Z"/><path class="cls-1" d="M75.83,45.43C61,45.43,60.94,60.24,60.94,60.32s-1,14.82,14.89,14.82c0,0,12,.68,13.16-8.74a1.39,1.39,0,0,0-1.38-1.58H83.45a1.38,1.38,0,0,0-1.32,1C81.77,67,80.49,69,76.05,69c0,0-5.76.39-6.68-5.15a1.38,1.38,0,0,1,1.37-1.58H88a1.39,1.39,0,0,0,1.39-1.33C89.54,57,88.81,45.43,75.83,45.43ZM70.2,57.07A.81.81,0,0,1,69.43,56,6.61,6.61,0,0,1,76,51.11a5.49,5.49,0,0,1,5.82,5,.8.8,0,0,1-.8.92ZM52.35,53.62a.58.58,0,0,1-.1-1.06c1.66-.84,3.62-2.68,3.62-6.67,0-6.93-4.83-10.32-11-10.32H25.76a1,1,0,0,0-1,1V73.31a1,1,0,0,0,1,1H44.9s12.32.38,12.32-11.45C57.22,62.88,57.64,55.36,52.35,53.62ZM33.63,43.19a.74.74,0,0,1,.73-.74H44.91s2.73,0,2.73,4-1.6,4.62-3.43,4.62H34.36a.74.74,0,0,1-.73-.74ZM44.34,67.45h-10a.74.74,0,0,1-.73-.74v-8.9a.74.74,0,0,1,.73-.74H44.91S49,57,49,62.41C49,66.94,45.94,67.41,44.34,67.45ZM67.49,37.12v3.31a.73.73,0,0,0,.73.73H82.76a.73.73,0,0,0,.72-.73V37.12a.72.72,0,0,0-.72-.73H68.22A.73.73,0,0,0,67.49,37.12Z"/></g></g></svg>