<svg xmlns="http://www.w3.org/2000/svg" viewBox="0 0 339.55 158.41"><defs><style>.cls-1{fill:#7c7a7a;}.cls-2{fill:#b180b7;}.cls-3{fill:#4f3757;}.cls-4{fill:#009bc5;}</style></defs><g id="Capa_2" data-name="Capa 2"><g id="Capa_3" data-name="Capa 3"><path class="cls-1" d="M143.45,104.59H330.18a9.37,9.37,0,0,1,9.37,9.37v0a9.37,9.37,0,0,1-9.37,9.37H143.45a0,0,0,0,1,0,0V104.59a0,0,0,0,1,0,0Z"/><path class="cls-2" d="M293.8,123.32H143.45V104.59H293.8a9.37,9.37,0,0,1,9.37,9.36h0A9.37,9.37,0,0,1,293.8,123.32Z"/><rect class="cls-2" width="158.41" height="158.41" rx="79.2"/><rect class="cls-3" x="15.59" y="15.59" width="127.23" height="127.23" rx="63.61"/><path class="cls-4" d="M186.86,70H176.49c-.18.51-.37,1.08-.58,1.68s-.4,1.2-.6,1.78-.38,1.12-.56,1.62-.32.93-.42,1.26a3.33,3.33,0,0,1-1.28.23,1.9,1.9,0,0,1-1.1-.33,1.19,1.19,0,0,1-.48-1.06,2.23,2.23,0,0,1,.11-.71c.08-.25.17-.51.27-.8.39-1.08.89-2.47,1.49-4.18s1.26-3.51,2-5.43,1.43-3.85,2.17-5.8,1.41-3.69,2-5.24a5,5,0,0,1,.93-.31,5.41,5.41,0,0,1,1.28-.16,4.59,4.59,0,0,1,1.48.24,1.29,1.29,0,0,1,.91.77q.93,2.23,2,5.12t2.15,5.9q1.08,3,2.07,5.94c.66,2,1.24,3.71,1.76,5.28a2.5,2.5,0,0,1-.73.56,2.19,2.19,0,0,1-1,.21,1.66,1.66,0,0,1-1.12-.33,2.46,2.46,0,0,1-.66-1.1Zm-5.18-14.82c-.29.78-.61,1.66-1,2.65l-1.12,3.12c-.39,1.08-.78,2.18-1.16,3.28s-.75,2.17-1.09,3.18h8.71c-.39-1.16-.79-2.33-1.2-3.5s-.81-2.31-1.18-3.39-.72-2.08-1-3-.58-1.69-.79-2.34Z"/><path class="cls-4" d="M192.08,74.61a2.24,2.24,0,0,1,.56-1.55,2,2,0,0,1,1.57-.62,1.94,1.94,0,0,1,1.54.62,2.28,2.28,0,0,1,.55,1.55,2.25,2.25,0,0,1-.55,1.51,1.94,1.94,0,0,1-1.54.62,2,2,0,0,1-1.57-.62A2.21,2.21,0,0,1,192.08,74.61Z"/><path class="cls-4" d="M205.46,67.84v8.32c-.15,0-.36.11-.62.17a3.67,3.67,0,0,1-.85.1c-1.13,0-1.7-.48-1.7-1.43V54.42a1.37,1.37,0,0,1,.31-1,2.16,2.16,0,0,1,1-.52,13.54,13.54,0,0,1,2.72-.5,30.48,30.48,0,0,1,3.12-.16q4.91,0,7.17,2.07A7.19,7.19,0,0,1,218.84,60a7.45,7.45,0,0,1-2.31,5.74q-2.33,2.15-7.16,2.15Zm3.71-2.63a7.79,7.79,0,0,0,4.8-1.28,4.58,4.58,0,0,0,1.7-3.94A4.47,4.47,0,0,0,214,56.14a7.81,7.81,0,0,0-4.7-1.22,20.49,20.49,0,0,0-2.07.1c-.68.06-1.29.15-1.84.25v9.94Z"/><path class="cls-4" d="M223.1,76.16a4.41,4.41,0,0,1-.58.17,3.74,3.74,0,0,1-.85.1c-1.11,0-1.66-.47-1.66-1.4V61.92a2.54,2.54,0,0,1,.33-1.41,3.33,3.33,0,0,1,1.1-1,9.75,9.75,0,0,1,2.72-1.14,14.13,14.13,0,0,1,3.89-.49c2.06,0,3.09.52,3.09,1.55a2,2,0,0,1-.11.71,1.94,1.94,0,0,1-.31.57,9.86,9.86,0,0,0-1-.16,10.19,10.19,0,0,0-1.24-.08,11.84,11.84,0,0,0-3.13.37,10.27,10.27,0,0,0-2.24.87Z"/><path class="cls-4" d="M233.7,69.12q1,5.05,6.65,5.06a7.7,7.7,0,0,0,2.94-.54,8.69,8.69,0,0,0,2.09-1.16,1.64,1.64,0,0,1,.93,1.47,1.55,1.55,0,0,1-.49,1,4.48,4.48,0,0,1-1.31.89,9.84,9.84,0,0,1-1.94.62,11.79,11.79,0,0,1-2.38.23,10,10,0,0,1-7.09-2.44q-2.61-2.44-2.61-7.12a11.11,11.11,0,0,1,.64-3.92,8.31,8.31,0,0,1,1.77-2.92,7.7,7.7,0,0,1,2.73-1.84,9.07,9.07,0,0,1,3.44-.64,8.6,8.6,0,0,1,3.21.58,7.41,7.41,0,0,1,4.2,4.16,8.28,8.28,0,0,1,.6,3.19,1.62,1.62,0,0,1-.39,1.22,1.84,1.84,0,0,1-1.08.44ZM239,60.38A5.11,5.11,0,0,0,235.13,62a6.92,6.92,0,0,0-1.63,4.7l10.64-1.47a5.64,5.64,0,0,0-1.49-3.5A4.7,4.7,0,0,0,239,60.38Z"/><path class="cls-4" d="M270.25,61.3a4.44,4.44,0,0,0-2.9-.89,6.55,6.55,0,0,0-4.49,1.78,6,6,0,0,1,.23,1.67v12.3a4.42,4.42,0,0,1-.6.17,3.85,3.85,0,0,1-.83.1c-1.11,0-1.66-.47-1.66-1.4V64.09a3.4,3.4,0,0,0-1.09-2.79,4.49,4.49,0,0,0-2.93-.89,6.92,6.92,0,0,0-2.34.39,8.91,8.91,0,0,0-1.88.89V76.16a4.41,4.41,0,0,1-.58.17,3.74,3.74,0,0,1-.85.1c-1.11,0-1.66-.47-1.66-1.4V61.84a2.38,2.38,0,0,1,.32-1.29,3.76,3.76,0,0,1,1.15-1.06,10.64,10.64,0,0,1,2.65-1.14,10.8,10.8,0,0,1,3.22-.49,9.48,9.48,0,0,1,3.37.56A5.18,5.18,0,0,1,261.62,60a8.53,8.53,0,0,1,2.52-1.49,9.22,9.22,0,0,1,3.44-.6,7.77,7.77,0,0,1,5,1.49,5.51,5.51,0,0,1,1.85,4.58V76.16a3.82,3.82,0,0,1-.59.17,3.94,3.94,0,0,1-.84.1c-1.11,0-1.66-.47-1.66-1.4V64.09A3.43,3.43,0,0,0,270.25,61.3Z"/><path class="cls-4" d="M277.05,52.72a1.84,1.84,0,0,1,.57-1.37,1.93,1.93,0,0,1,1.45-.57,1.94,1.94,0,1,1,0,3.87,1.92,1.92,0,0,1-1.45-.56A1.84,1.84,0,0,1,277.05,52.72Zm3.56,23.44a4.41,4.41,0,0,1-.58.17,3.74,3.74,0,0,1-.85.1c-1.11,0-1.66-.47-1.66-1.4V58.44a4.42,4.42,0,0,1,.6-.17,3.46,3.46,0,0,1,.87-.1c1.08,0,1.62.48,1.62,1.43Z"/><path class="cls-4" d="M286,69.12c.7,3.37,2.91,5.06,6.65,5.06a7.63,7.63,0,0,0,2.94-.54,8.69,8.69,0,0,0,2.09-1.16,1.64,1.64,0,0,1,.93,1.47,1.53,1.53,0,0,1-.48,1,4.54,4.54,0,0,1-1.32.89,9.73,9.73,0,0,1-1.93.62,11.94,11.94,0,0,1-2.38.23,10,10,0,0,1-7.1-2.44q-2.61-2.44-2.61-7.12a11.11,11.11,0,0,1,.64-3.92,8.48,8.48,0,0,1,1.78-2.92,7.75,7.75,0,0,1,2.72-1.84,9.09,9.09,0,0,1,3.45-.64,8.6,8.6,0,0,1,3.21.58,7.4,7.4,0,0,1,2.53,1.65,7.48,7.48,0,0,1,1.66,2.51,8.28,8.28,0,0,1,.6,3.19A1.67,1.67,0,0,1,299,67a1.84,1.84,0,0,1-1.09.44Zm5.34-8.74A5.13,5.13,0,0,0,287.38,62a6.87,6.87,0,0,0-1.62,4.7l10.63-1.47a5.63,5.63,0,0,0-1.48-3.5A4.73,4.73,0,0,0,291.29,60.38Z"/><path class="cls-4" d="M304,76.16a4.41,4.41,0,0,1-.58.17,3.67,3.67,0,0,1-.85.1c-1.11,0-1.66-.47-1.66-1.4V61.92a2.63,2.63,0,0,1,.33-1.41,3.44,3.44,0,0,1,1.1-1,9.82,9.82,0,0,1,2.73-1.14,14,14,0,0,1,3.88-.49c2.07,0,3.1.52,3.1,1.55a2,2,0,0,1-.12.71,1.94,1.94,0,0,1-.31.57,9.6,9.6,0,0,0-1-.16,10.46,10.46,0,0,0-1.24-.08,11.74,11.74,0,0,0-3.13.37,10.37,10.37,0,0,0-2.25.87Z"/><path class="cls-4" d="M314.61,69.12c.7,3.37,2.91,5.06,6.65,5.06a7.66,7.66,0,0,0,2.94-.54,8.69,8.69,0,0,0,2.09-1.16,1.64,1.64,0,0,1,.93,1.47,1.53,1.53,0,0,1-.48,1,4.54,4.54,0,0,1-1.32.89,9.73,9.73,0,0,1-1.93.62,11.94,11.94,0,0,1-2.38.23A10,10,0,0,1,314,74.3q-2.61-2.44-2.61-7.12a11.11,11.11,0,0,1,.64-3.92,8.33,8.33,0,0,1,1.78-2.92,7.75,7.75,0,0,1,2.72-1.84,9.09,9.09,0,0,1,3.45-.64,8.6,8.6,0,0,1,3.21.58,7.4,7.4,0,0,1,2.53,1.65,7.48,7.48,0,0,1,1.66,2.51,8.28,8.28,0,0,1,.6,3.19,1.67,1.67,0,0,1-.38,1.22,1.84,1.84,0,0,1-1.09.44ZM320,60.38A5.13,5.13,0,0,0,316,62a6.87,6.87,0,0,0-1.62,4.7l10.63-1.47a5.64,5.64,0,0,0-1.49-3.5A4.7,4.7,0,0,0,320,60.38Z"/><path class="cls-2" d="M66.76,51.6H43.35v55.21H54.08V88.3H67.15C76.72,88.3,84.34,80,84.34,70,84.34,61.45,77.47,51.6,66.76,51.6Zm-.23,27.29H54.09V61h12c4.56,0,7.39,4.27,7.39,8.94C73.45,75.38,70.29,78.89,66.53,78.89Z"/><path class="cls-2" d="M115.05,75.08V65.59c-9.41-1-14,7.78-14.7,9.18V66.06H90.79v40.75h10.42V82.16c1.09-2.34,4.68-7.08,13.84-7.08Z"/></g></g></svg>