<svg xmlns="http://www.w3.org/2000/svg" viewBox="0 0 338.76 158.04"><defs><style>.cls-1{fill:#7c7a7a;}.cls-2{fill:#51bab6;}.cls-3{fill:#3d4e6b;}</style></defs><g id="Capa_2" data-name="Capa 2"><g id="Capa_5" data-name="Capa 5"><path class="cls-1" d="M143.12,104.34H329.41a9.34,9.34,0,0,1,9.34,9.34v0a9.34,9.34,0,0,1-9.34,9.34H143.12a0,0,0,0,1,0,0V104.34a0,0,0,0,1,0,0Z"/><path class="cls-2" d="M145.47,104.34H233a9.34,9.34,0,0,1,9.34,9.34v0A9.34,9.34,0,0,1,233,123H145.47a2.35,2.35,0,0,1-2.35-2.35v-14a2.35,2.35,0,0,1,2.35-2.35Z"/><rect class="cls-2" width="158.04" height="158.04" rx="79.02"/><rect class="cls-3" x="15.55" y="15.55" width="126.93" height="126.93" rx="63.46"/><path class="cls-2" d="M186.42,69.69H176.08l-.58,1.68q-.3.9-.6,1.77c-.19.58-.37,1.12-.56,1.62s-.32.92-.42,1.26a3.27,3.27,0,0,1-1.27.23,1.9,1.9,0,0,1-1.1-.33,1.19,1.19,0,0,1-.48-1.06,2.23,2.23,0,0,1,.11-.71c.08-.25.17-.51.27-.79.39-1.08.88-2.47,1.49-4.17s1.26-3.51,2-5.42,1.43-3.85,2.17-5.79,1.4-3.69,2-5.23a5,5,0,0,1,.93-.31,5.32,5.32,0,0,1,1.27-.15,4.69,4.69,0,0,1,1.49.23,1.29,1.29,0,0,1,.9.77c.62,1.49,1.28,3.2,2,5.11s1.42,3.88,2.14,5.89,1.41,4,2.07,5.92,1.24,3.7,1.75,5.27a2.37,2.37,0,0,1-.73.56,2.13,2.13,0,0,1-1,.21,1.65,1.65,0,0,1-1.11-.33,2.46,2.46,0,0,1-.66-1.1Zm-5.17-14.78-1,2.64c-.36,1-.74,2-1.12,3.11s-.77,2.18-1.16,3.28-.75,2.16-1.08,3.16h8.68c-.38-1.15-.78-2.32-1.19-3.49s-.81-2.29-1.18-3.37-.72-2.08-1-3-.59-1.7-.79-2.34Z"/><path class="cls-2" d="M191.63,74.32a2.21,2.21,0,0,1,.56-1.54,2,2,0,0,1,1.56-.62,2,2,0,0,1,1.55.62,2.42,2.42,0,0,1,0,3,2,2,0,0,1-1.55.61,2,2,0,0,1-1.56-.61A2.21,2.21,0,0,1,191.63,74.32Z"/><path class="cls-2" d="M219.72,69.69H209.38l-.58,1.68q-.3.9-.6,1.77c-.19.58-.38,1.12-.55,1.62s-.33.92-.43,1.26a3.31,3.31,0,0,1-1.27.23,1.9,1.9,0,0,1-1.1-.33,1.2,1.2,0,0,1-.49-1.06,2.25,2.25,0,0,1,.12-.71c.08-.25.17-.51.27-.79.39-1.08.88-2.47,1.49-4.17s1.26-3.51,2-5.42,1.43-3.85,2.16-5.79,1.41-3.69,2-5.23a5,5,0,0,1,.93-.31,5.32,5.32,0,0,1,1.27-.15,4.69,4.69,0,0,1,1.49.23,1.29,1.29,0,0,1,.9.77c.62,1.49,1.28,3.2,2,5.11s1.42,3.88,2.14,5.89,1.41,4,2.07,5.92,1.24,3.7,1.75,5.27a2.5,2.5,0,0,1-.73.56,2.16,2.16,0,0,1-1,.21,1.7,1.7,0,0,1-1.12-.33,2.55,2.55,0,0,1-.65-1.1Zm-5.17-14.78-1,2.64c-.36,1-.74,2-1.12,3.11s-.77,2.18-1.16,3.28-.74,2.16-1.08,3.16h8.68c-.38-1.15-.78-2.32-1.19-3.49s-.81-2.29-1.18-3.37-.72-2.08-1-3-.59-1.7-.79-2.34Z"/><path class="cls-2" d="M225.86,58.19a4.42,4.42,0,0,1,.6-.17,3.46,3.46,0,0,1,.87-.1c1.08,0,1.62.48,1.62,1.43v9.92a4.3,4.3,0,0,0,1.31,3.56,5.58,5.58,0,0,0,3.62,1.07,8.79,8.79,0,0,0,4.33-1V58.19a4.65,4.65,0,0,1,.59-.17,3.37,3.37,0,0,1,.83-.1c1.11,0,1.66.48,1.66,1.43V72.78a3.27,3.27,0,0,1-.21,1.29,2.31,2.31,0,0,1-1,1,12.49,12.49,0,0,1-2.45,1,13.33,13.33,0,0,1-3.76.46,9.07,9.07,0,0,1-5.93-1.7q-2.05-1.69-2.06-5.32Z"/><path class="cls-2" d="M259.43,73a1.89,1.89,0,0,1-.33,1.19,3.64,3.64,0,0,1-1,.85,9.15,9.15,0,0,1-2.2,1,11.27,11.27,0,0,1-3.28.44,12.82,12.82,0,0,1-3.82-.54,7.85,7.85,0,0,1-3-1.68,7.39,7.39,0,0,1-1.93-2.89,11.8,11.8,0,0,1-.68-4.23,12,12,0,0,1,.7-4.3,8.16,8.16,0,0,1,1.87-2.95,7.16,7.16,0,0,1,2.78-1.7,10.55,10.55,0,0,1,3.41-.54,9.57,9.57,0,0,1,4.4,1.08V50.94a4.16,4.16,0,0,1,.6-.18,3.84,3.84,0,0,1,.83-.09c1.11,0,1.66.46,1.66,1.39Zm-3.09-11.54a7.76,7.76,0,0,0-1.77-.92,6.37,6.37,0,0,0-2.32-.39,7,7,0,0,0-2.26.36,4.92,4.92,0,0,0-1.87,1.2,5.87,5.87,0,0,0-1.29,2.18,9.87,9.87,0,0,0-.48,3.28q0,3.55,1.69,5.13a6.36,6.36,0,0,0,4.52,1.59,7.24,7.24,0,0,0,2.22-.29,7.47,7.47,0,0,0,1.56-.72Z"/><path class="cls-2" d="M262.13,52.48a1.83,1.83,0,0,1,.56-1.37,2,2,0,0,1,1.45-.56,1.93,1.93,0,1,1,0,3.86,2,2,0,0,1-1.45-.56A1.83,1.83,0,0,1,262.13,52.48Zm3.55,23.38a4.14,4.14,0,0,1-.58.18,3.76,3.76,0,0,1-.85.09c-1.1,0-1.66-.46-1.66-1.38V58.19a4.42,4.42,0,0,1,.6-.17,3.46,3.46,0,0,1,.87-.1c1.08,0,1.62.48,1.62,1.43Z"/><path class="cls-2" d="M274.9,76.44a7.44,7.44,0,0,1-4.38-1.19,4.56,4.56,0,0,1-1.68-4V52.94a4.42,4.42,0,0,1,.6-.17,4,4,0,0,1,.87-.1c1.08,0,1.62.47,1.62,1.39V58.5h6.33a2.93,2.93,0,0,1,.23.52,2.08,2.08,0,0,1,.12.71c0,.88-.39,1.32-1.16,1.32h-5.52v10a2.53,2.53,0,0,0,.87,2.18,4.13,4.13,0,0,0,2.45.64,5.22,5.22,0,0,0,1.47-.24,5.74,5.74,0,0,0,1.35-.54,3,3,0,0,1,.42.58,1.62,1.62,0,0,1,.2.81,1.59,1.59,0,0,1-1,1.39A5.91,5.91,0,0,1,274.9,76.44Z"/><path class="cls-2" d="M280,52.48a1.86,1.86,0,0,1,.55-1.37,2,2,0,0,1,1.45-.56,1.91,1.91,0,0,1,1.43.56,2,2,0,0,1,0,2.74,1.91,1.91,0,0,1-1.43.56,2,2,0,0,1-1.45-.56A1.86,1.86,0,0,1,280,52.48Zm3.55,23.38A4.63,4.63,0,0,1,283,76a3.76,3.76,0,0,1-.85.09c-1.11,0-1.66-.46-1.66-1.38V58.19a4.42,4.42,0,0,1,.6-.17,3.46,3.46,0,0,1,.87-.1c1.08,0,1.62.48,1.62,1.43Z"/><path class="cls-2" d="M303.23,67a11.54,11.54,0,0,1-.62,3.89,8.59,8.59,0,0,1-1.76,3,7.64,7.64,0,0,1-2.76,1.89,10.43,10.43,0,0,1-7.25,0,7.8,7.8,0,0,1-2.78-1.89,8.46,8.46,0,0,1-1.77-3,11.3,11.3,0,0,1-.62-3.89,11.16,11.16,0,0,1,.64-3.9,8.52,8.52,0,0,1,1.79-3,7.8,7.8,0,0,1,2.78-1.89,10.09,10.09,0,0,1,7.18,0,7.51,7.51,0,0,1,2.75,1.89,8.81,8.81,0,0,1,1.78,3A11.39,11.39,0,0,1,303.23,67Zm-8.76-6.87A5.07,5.07,0,0,0,290.34,62,7.68,7.68,0,0,0,288.83,67a7.76,7.76,0,0,0,1.49,5.07,5.08,5.08,0,0,0,4.15,1.8,5,5,0,0,0,4.12-1.82,7.81,7.81,0,0,0,1.47-5A7.78,7.78,0,0,0,298.58,62,5,5,0,0,0,294.47,60.16Z"/><path class="cls-2" d="M316.25,61.16a5,5,0,0,0-3.26-1,8.8,8.8,0,0,0-2.74.39,10.1,10.1,0,0,0-2.05.88V75.86a3.93,3.93,0,0,1-.57.18,3.76,3.76,0,0,1-.85.09c-1.11,0-1.66-.46-1.66-1.38V61.59a2.58,2.58,0,0,1,.32-1.34,3.65,3.65,0,0,1,1.14-1,11.83,11.83,0,0,1,2.67-1.12,13,13,0,0,1,3.74-.5,8.81,8.81,0,0,1,5.54,1.58,5.94,5.94,0,0,1,2,5V75.86a4,4,0,0,1-1.43.27c-1.1,0-1.66-.46-1.66-1.38V64.33A3.88,3.88,0,0,0,316.25,61.16Z"/><path class="cls-2" d="M60.85,49.75H50.93l-22,57.72H40.44l5.28-14.39H65.89l5.36,14.39H82.8ZM47.59,85.2l8.3-22.69,8,22.69Z"/><path class="cls-2" d="M126.54,95V64.87H115.65V91.29C114.4,93.9,111,99,104.67,99q-7.08,0-7.07-9.84V64.87H86.7V91.54c0,11,4.72,16.75,13.42,16.75,10.1,0,15.25-5.86,17.15-8.78l.25,3.41c.21,1.57,1.59,5,6.91,5,.59,0,1.26,0,2-.08a21.55,21.55,0,0,0,2.72-.41V98.21C126.65,98.07,126.54,96.09,126.54,95Z"/></g></g></svg>