<svg xmlns="http://www.w3.org/2000/svg" viewBox="0 0 338.76 158.04"><defs><style>.cls-1{fill:#7c7a7a;}.cls-2{fill:#009bc5;}.cls-3{fill:#18182e;}</style></defs><g id="Capa_2" data-name="Capa 2"><g id="Capa_3" data-name="Capa 3"><path class="cls-1" d="M143.12,104.34H329.41a9.34,9.34,0,0,1,9.34,9.34v0a9.34,9.34,0,0,1-9.34,9.34H143.12a0,0,0,0,1,0,0V104.34a0,0,0,0,1,0,0Z"/><path class="cls-2" d="M143.12,104.34H277a8.37,8.37,0,0,1,8.37,8.37v1.95A8.37,8.37,0,0,1,277,123H143.12a0,0,0,0,1,0,0V104.34A0,0,0,0,1,143.12,104.34Z"/><rect class="cls-2" width="158.04" height="158.04" rx="79.02"/><rect class="cls-3" x="15.55" y="15.55" width="126.93" height="126.93" rx="63.46"/><path class="cls-2" d="M185.15,69.43h-9.48c-.17.48-.34,1-.53,1.54s-.38,1.1-.55,1.63-.35,1-.52,1.49-.29.84-.39,1.15a3,3,0,0,1-1.16.21,1.74,1.74,0,0,1-1-.3,1.07,1.07,0,0,1-.44-1,2.21,2.21,0,0,1,.1-.66c.07-.22.15-.46.25-.72.35-1,.81-2.27,1.36-3.83s1.16-3.21,1.81-5,1.31-3.53,2-5.31,1.29-3.38,1.86-4.8a4.4,4.4,0,0,1,.85-.28,5.06,5.06,0,0,1,1.17-.14,4.44,4.44,0,0,1,1.36.21,1.21,1.21,0,0,1,.83.71c.57,1.37,1.17,2.93,1.82,4.69s1.31,3.56,2,5.4,1.29,3.65,1.89,5.43,1.14,3.39,1.61,4.83a2,2,0,0,1-.67.51,1.81,1.81,0,0,1-.88.2,1.54,1.54,0,0,1-1-.3,2.23,2.23,0,0,1-.6-1Zm-4.74-13.56c-.26.71-.55,1.52-.89,2.43s-.67,1.86-1,2.85-.71,2-1.06,3-.69,2-1,2.9h8c-.35-1.06-.72-2.13-1.1-3.2l-1.07-3.1-1-2.74c-.3-.84-.54-1.56-.73-2.15Z"/><path class="cls-2" d="M189.93,73.68a2,2,0,0,1,.52-1.41,1.82,1.82,0,0,1,1.43-.57,1.79,1.79,0,0,1,1.42.57,2.23,2.23,0,0,1,0,2.79,1.79,1.79,0,0,1-1.42.57,1.82,1.82,0,0,1-1.43-.57A2,2,0,0,1,189.93,73.68Z"/><path class="cls-2" d="M202.18,67.49V75.1c-.14,0-.33.1-.57.15a3.07,3.07,0,0,1-.77.09c-1,0-1.56-.43-1.56-1.3V55.2a1.21,1.21,0,0,1,.28-.87,1.91,1.91,0,0,1,.89-.47,11.68,11.68,0,0,1,2.49-.46,28.08,28.08,0,0,1,2.85-.15c3,0,5.19.64,6.57,1.9a6.59,6.59,0,0,1,2.07,5.11,6.83,6.83,0,0,1-2.12,5.26q-2.13,2-6.55,2Zm3.4-2.41A7.19,7.19,0,0,0,210,63.91a4.22,4.22,0,0,0,1.56-3.61A4.06,4.06,0,0,0,210,56.78a7.06,7.06,0,0,0-4.3-1.12c-.63,0-1.27,0-1.89.09s-1.19.14-1.68.23v9.1Z"/><path class="cls-2" d="M218.57,75.25a3.15,3.15,0,0,1-.78.09c-1,0-1.52-.42-1.52-1.27V52.23a4,4,0,0,1,.55-.16,3.38,3.38,0,0,1,.8-.09c1,0,1.48.42,1.48,1.27v6.38a11.31,11.31,0,0,1,2-.89,8.11,8.11,0,0,1,2.6-.39,8.82,8.82,0,0,1,2.71.39,5.68,5.68,0,0,1,2.11,1.19,5.38,5.38,0,0,1,1.38,2,7.61,7.61,0,0,1,.5,2.86V75.1a4.83,4.83,0,0,1-.55.15,3.25,3.25,0,0,1-.77.09c-1,0-1.52-.42-1.52-1.27v-9.2a4,4,0,0,0-1.17-3.15,4.44,4.44,0,0,0-3.07-1,6.14,6.14,0,0,0-2.32.44,8.48,8.48,0,0,0-1.9,1.08V75.1A4.28,4.28,0,0,1,218.57,75.25Z"/><path class="cls-2" d="M248.24,67a10.53,10.53,0,0,1-.57,3.57,7.72,7.72,0,0,1-1.61,2.73A6.9,6.9,0,0,1,243.53,75a9.51,9.51,0,0,1-6.65,0,6.9,6.9,0,0,1-2.55-1.74,7.47,7.47,0,0,1-1.63-2.73,11.4,11.4,0,0,1,0-7.15,7.84,7.84,0,0,1,1.65-2.72A7.19,7.19,0,0,1,236.91,59a9.32,9.32,0,0,1,6.58,0A7,7,0,0,1,246,60.69a7.94,7.94,0,0,1,1.62,2.72A10.38,10.38,0,0,1,248.24,67Zm-8-6.3a4.66,4.66,0,0,0-3.79,1.66A7.07,7.07,0,0,0,235,67a7.11,7.11,0,0,0,1.37,4.66,4.66,4.66,0,0,0,3.8,1.64A4.6,4.6,0,0,0,244,71.63,7.18,7.18,0,0,0,245.33,67,7.13,7.13,0,0,0,244,62.35,4.6,4.6,0,0,0,240.2,60.69Z"/><path class="cls-2" d="M255.57,75.63a6.76,6.76,0,0,1-4-1.1A4.16,4.16,0,0,1,250,70.88V54.07a4,4,0,0,1,.55-.16,3.29,3.29,0,0,1,.79-.09c1,0,1.49.43,1.49,1.28v4.07h5.8a1.89,1.89,0,0,1,.22.47,2,2,0,0,1,.1.66c0,.8-.35,1.2-1.06,1.2h-5.06v9.21a2.33,2.33,0,0,0,.8,2,3.73,3.73,0,0,0,2.24.58,5.06,5.06,0,0,0,1.35-.21,5.41,5.41,0,0,0,1.24-.5,2.51,2.51,0,0,1,.39.53,1.63,1.63,0,0,1,.17.75,1.44,1.44,0,0,1-.92,1.27A5.4,5.4,0,0,1,255.57,75.63Z"/><path class="cls-2" d="M275.14,67a10.78,10.78,0,0,1-.56,3.57A7.87,7.87,0,0,1,273,73.29,6.86,6.86,0,0,1,270.43,75a9.51,9.51,0,0,1-6.65,0,7.06,7.06,0,0,1-2.55-1.74,7.61,7.61,0,0,1-1.63-2.73A10.53,10.53,0,0,1,259,67a10.38,10.38,0,0,1,.59-3.58,7.84,7.84,0,0,1,1.65-2.72A7.06,7.06,0,0,1,263.81,59a9.35,9.35,0,0,1,6.59,0,7,7,0,0,1,2.53,1.74,8.12,8.12,0,0,1,1.63,2.72A10.38,10.38,0,0,1,275.14,67Zm-8-6.3a4.65,4.65,0,0,0-3.79,1.66A7.07,7.07,0,0,0,261.94,67a7.11,7.11,0,0,0,1.36,4.66,4.69,4.69,0,0,0,3.81,1.64,4.58,4.58,0,0,0,3.78-1.66A7.18,7.18,0,0,0,272.24,67a7.13,7.13,0,0,0-1.36-4.64A4.61,4.61,0,0,0,267.11,60.69Z"/><path class="cls-2" d="M288.42,70.81a4.21,4.21,0,0,1-1.67,3.54,7.79,7.79,0,0,1-4.81,1.28,12.75,12.75,0,0,1-2.48-.23,9.39,9.39,0,0,1-1.93-.6,4.21,4.21,0,0,1-1.24-.85,1.47,1.47,0,0,1-.44-1,1.51,1.51,0,0,1,.23-.81,1.93,1.93,0,0,1,.69-.67A11,11,0,0,0,279,72.74a7.21,7.21,0,0,0,2.9.55c2.46,0,3.68-.82,3.68-2.48,0-1.34-.81-2.21-2.44-2.62l-2.94-.78a6.32,6.32,0,0,1-3.15-1.64,4,4,0,0,1-1-2.78,4.53,4.53,0,0,1,.37-1.77,4,4,0,0,1,1.15-1.49,6.08,6.08,0,0,1,1.93-1,9.1,9.1,0,0,1,2.71-.37,9.4,9.4,0,0,1,4,.73c1,.48,1.52,1,1.52,1.68a1.38,1.38,0,0,1-.23.81,1.42,1.42,0,0,1-.62.54,11.17,11.17,0,0,0-1.8-.93,7.05,7.05,0,0,0-2.76-.49,4.64,4.64,0,0,0-2.53.6,1.9,1.9,0,0,0-.94,1.7,2,2,0,0,0,.53,1.38,3.4,3.4,0,0,0,1.77.85l2.44.6a7.69,7.69,0,0,1,3.61,1.79A4.27,4.27,0,0,1,288.42,70.81Z"/><path class="cls-2" d="M292.42,75.25a3.21,3.21,0,0,1-.78.09c-1,0-1.52-.42-1.52-1.27V52.23a3.76,3.76,0,0,1,.54-.16,3.44,3.44,0,0,1,.8-.09c1,0,1.49.42,1.49,1.27v6.38a10.69,10.69,0,0,1,2-.89,8,8,0,0,1,2.6-.39,8.92,8.92,0,0,1,2.71.39,5.72,5.72,0,0,1,2.1,1.19,5.52,5.52,0,0,1,1.39,2,7.82,7.82,0,0,1,.49,2.86V75.1a4.29,4.29,0,0,1-.55.15,3.16,3.16,0,0,1-.76.09c-1,0-1.52-.42-1.52-1.27v-9.2a4,4,0,0,0-1.17-3.15,4.48,4.48,0,0,0-3.08-1,6.14,6.14,0,0,0-2.32.44A8.19,8.19,0,0,0,293,62.21V75.1A4.87,4.87,0,0,1,292.42,75.25Z"/><path class="cls-2" d="M322.08,67a10.78,10.78,0,0,1-.56,3.57,7.74,7.74,0,0,1-1.62,2.73A6.74,6.74,0,0,1,317.37,75a9.51,9.51,0,0,1-6.65,0,7.06,7.06,0,0,1-2.55-1.74,7.61,7.61,0,0,1-1.63-2.73A10.53,10.53,0,0,1,306,67a10.38,10.38,0,0,1,.59-3.58,7.84,7.84,0,0,1,1.65-2.72A7.06,7.06,0,0,1,310.75,59a9.35,9.35,0,0,1,6.59,0,7,7,0,0,1,2.53,1.74,8,8,0,0,1,1.63,2.72A10.38,10.38,0,0,1,322.08,67Zm-8-6.3a4.65,4.65,0,0,0-3.79,1.66A7.07,7.07,0,0,0,308.88,67a7.11,7.11,0,0,0,1.36,4.66,4.69,4.69,0,0,0,3.81,1.64,4.56,4.56,0,0,0,3.78-1.66A7.18,7.18,0,0,0,319.18,67a7.18,7.18,0,0,0-1.36-4.64A4.61,4.61,0,0,0,314.05,60.69Z"/><path class="cls-2" d="M330.79,75.63a9.38,9.38,0,0,1-2.34-.29,7.4,7.4,0,0,1-1.8-.67v6.87a4.5,4.5,0,0,1-.53.16,3.21,3.21,0,0,1-.78.09c-1,0-1.52-.44-1.52-1.31V61.79a2.22,2.22,0,0,1,.25-1.14,2.72,2.72,0,0,1,1-.88,12.91,12.91,0,0,1,2.28-1,9.46,9.46,0,0,1,3-.45,10.67,10.67,0,0,1,3.28.5,6.88,6.88,0,0,1,2.65,1.54,7.34,7.34,0,0,1,1.77,2.67,10.38,10.38,0,0,1,.66,3.89,11.33,11.33,0,0,1-.59,3.83,7.22,7.22,0,0,1-1.64,2.7A6.7,6.7,0,0,1,334,75.1,9.38,9.38,0,0,1,330.79,75.63Zm-.39-2.34a5.38,5.38,0,0,0,4-1.5q1.51-1.52,1.51-4.84a8.65,8.65,0,0,0-.44-2.93,5.11,5.11,0,0,0-1.21-1.95A4.28,4.28,0,0,0,332.49,61a6.58,6.58,0,0,0-2.09-.32,6.23,6.23,0,0,0-2.16.32,10.69,10.69,0,0,0-1.59.71V72.16a5.94,5.94,0,0,0,1.59.81A6.38,6.38,0,0,0,330.4,73.29Z"/><path class="cls-2" d="M68.28,51.09H44.67v55.68H55.49V88.11H68.67C78.32,88.11,86,79.7,86,69.6,86,61,79.08,51.09,68.28,51.09ZM68,78.62H55.49v-18H67.57c4.59,0,7.45,4.31,7.45,9C75,75.07,71.84,78.62,68,78.62Z"/><path class="cls-2" d="M108.74,82.15c-1.51-.37-8.08-1.44-8.08-5.18,0-3,2.47-4.63,6.28-4.63,5.17,0,9.83,3,11.92,4.55l4.23-6.35c-2.24-2-7.06-5.65-16.07-5.65-8.59,0-16.16,4.87-16.16,13.57,0,9,12,10.72,14.67,11.45,3.19.89,9,2,9,5.57,0,2.88-2.77,4.55-6.75,4.55-6.15,0-11.92-3.64-14.43-5.41l-3.92,6.58A29.58,29.58,0,0,0,108,107.56c5.12,0,16.62-1.61,16.62-13C124.66,84.88,111.57,82.88,108.74,82.15Z"/></g></g></svg>