<svg xmlns="http://www.w3.org/2000/svg" viewBox="0 0 341 158.41"><defs><style>.cls-1{fill:#7c7a7a;}.cls-2{fill:#bcdce7;}.cls-3{fill:#2e3349;}</style></defs><g id="Capa_2" data-name="Capa 2"><g id="Capa_5" data-name="Capa 5"><path class="cls-1" d="M143.45,104.59H330.18a9.37,9.37,0,0,1,9.37,9.37v0a9.37,9.37,0,0,1-9.37,9.37H143.45a0,0,0,0,1,0,0V104.59a0,0,0,0,1,0,0Z"/><path class="cls-2" d="M145.9,104.59h85.21a9.37,9.37,0,0,1,9.37,9.37v0a9.37,9.37,0,0,1-9.37,9.37H145.9a2.44,2.44,0,0,1-2.44-2.44V107A2.44,2.44,0,0,1,145.9,104.59Z"/><rect class="cls-2" width="158.41" height="158.41" rx="79.2"/><rect class="cls-3" x="15.59" y="15.59" width="127.23" height="127.23" rx="63.61"/><path class="cls-3" d="M186.27,69.73h-10c-.18.5-.36,1-.56,1.63s-.4,1.16-.58,1.72-.37,1.09-.55,1.58-.31.89-.41,1.22a3.11,3.11,0,0,1-1.23.22,1.87,1.87,0,0,1-1.07-.32,1.15,1.15,0,0,1-.47-1,2.48,2.48,0,0,1,.11-.69c.08-.24.16-.49.26-.77l1.45-4q.87-2.48,1.91-5.27t2.09-5.62c.72-1.88,1.37-3.57,2-5.07a4.65,4.65,0,0,1,.9-.3,5.07,5.07,0,0,1,1.24-.15,4.67,4.67,0,0,1,1.44.23,1.29,1.29,0,0,1,.88.74q.9,2.17,1.93,5c.68,1.86,1.38,3.76,2.08,5.71s1.36,3.86,2,5.75,1.2,3.59,1.7,5.11a2.1,2.1,0,0,1-.71.54,2,2,0,0,1-.94.21,1.64,1.64,0,0,1-1.08-.32,2.44,2.44,0,0,1-.64-1.06Zm-5-14.34c-.28.75-.59,1.6-.94,2.56l-1.09,3-1.12,3.18-1.05,3.07h8.43c-.38-1.12-.76-2.25-1.16-3.39s-.78-2.22-1.14-3.27-.7-2-1-2.9-.57-1.65-.77-2.27Z"/><path class="cls-3" d="M191.33,74.23a2.12,2.12,0,0,1,.55-1.5,1.92,1.92,0,0,1,1.51-.6,1.89,1.89,0,0,1,1.5.6,2.19,2.19,0,0,1,.52,1.5,2.14,2.14,0,0,1-.52,1.46,1.89,1.89,0,0,1-1.5.6,1.92,1.92,0,0,1-1.51-.6A2.07,2.07,0,0,1,191.33,74.23Z"/><path class="cls-3" d="M201.69,75.35a1.56,1.56,0,0,1-.47-1.2V53.1c.13-.05.32-.1.58-.17a3.8,3.8,0,0,1,.84-.09c1.1,0,1.65.46,1.65,1.39v19H215a1.66,1.66,0,0,1,.41,1.24,1.48,1.48,0,0,1-.33,1,1.16,1.16,0,0,1-.9.37H202.87A1.62,1.62,0,0,1,201.69,75.35Z"/><path class="cls-3" d="M216.39,53a1.8,1.8,0,0,1,.54-1.33,1.91,1.91,0,0,1,1.41-.54,1.87,1.87,0,1,1,0,3.74,1.91,1.91,0,0,1-1.41-.54A1.82,1.82,0,0,1,216.39,53Zm3.44,22.7a4.22,4.22,0,0,1-.56.16,3,3,0,0,1-.82.1c-1.08,0-1.61-.45-1.61-1.35V58.57a4,4,0,0,1,.58-.17,3.73,3.73,0,0,1,.84-.09c1.05,0,1.58.46,1.58,1.39Z"/><path class="cls-3" d="M234.44,74a5.42,5.42,0,0,1-1.74.9,8.27,8.27,0,0,1-2.64.38,10.22,10.22,0,0,1-3.11-.47,6.62,6.62,0,0,1-2.56-1.5,7.3,7.3,0,0,1-1.77-2.68,11,11,0,0,1-.65-4,10,10,0,0,1,.64-3.74,7.36,7.36,0,0,1,1.78-2.7,7.5,7.5,0,0,1,2.71-1.63,10.67,10.67,0,0,1,3.48-.54,11,11,0,0,1,3.17.43,9,9,0,0,1,2.41,1.07,3.58,3.58,0,0,1,.92.84,1.81,1.81,0,0,1,.36,1.14V76.55a7.29,7.29,0,0,1-.62,3.16,5.39,5.39,0,0,1-1.72,2.1A7.46,7.46,0,0,1,232.5,83a13.3,13.3,0,0,1-3.23.38A11.28,11.28,0,0,1,226,83a8.36,8.36,0,0,1-1.81-.69,1.86,1.86,0,0,1-1.13-1.61,1.53,1.53,0,0,1,.87-1.42,8.08,8.08,0,0,0,2.21,1.1,9.08,9.08,0,0,0,3.1.51,6,6,0,0,0,3.84-1.07,4.13,4.13,0,0,0,1.33-3.43Zm-4-1.2a5.61,5.61,0,0,0,2.45-.46,6.49,6.49,0,0,0,1.59-1.07V61.53a7,7,0,0,0-1.59-.73,7.27,7.27,0,0,0-2.27-.32A5.43,5.43,0,0,0,226.52,62,6.24,6.24,0,0,0,225,66.59a8.83,8.83,0,0,0,.41,2.86,5.17,5.17,0,0,0,1.15,1.93,4.39,4.39,0,0,0,1.72,1.09A6.68,6.68,0,0,0,230.4,72.8Z"/><path class="cls-3" d="M242.68,75.89a3,3,0,0,1-.82.1c-1.08,0-1.61-.45-1.61-1.35V51.53a4,4,0,0,1,.58-.17,3.73,3.73,0,0,1,.84-.09c1.05,0,1.57.45,1.57,1.35v6.74a12,12,0,0,1,2.12-.94,8.69,8.69,0,0,1,2.75-.41,9.57,9.57,0,0,1,2.87.41,6.07,6.07,0,0,1,2.22,1.26,5.64,5.64,0,0,1,1.47,2.13,8,8,0,0,1,.52,3v10.9a4.25,4.25,0,0,1-.58.16,3.1,3.1,0,0,1-.81.1c-1.07,0-1.6-.45-1.6-1.35V64.9A4.21,4.21,0,0,0,251,61.57a4.74,4.74,0,0,0-3.26-1.09,6.44,6.44,0,0,0-2.45.47,8.29,8.29,0,0,0-2,1.14V75.73A4.22,4.22,0,0,1,242.68,75.89Z"/><path class="cls-3" d="M263.92,76.29a7.17,7.17,0,0,1-4.25-1.16A4.41,4.41,0,0,1,258,71.27V53.48a4,4,0,0,1,.58-.17,3.73,3.73,0,0,1,.84-.09c1.05,0,1.57.45,1.57,1.35v4.3h6.15a2.86,2.86,0,0,1,.22.51,1.92,1.92,0,0,1,.11.69c0,.85-.37,1.27-1.12,1.27H261v9.74a2.46,2.46,0,0,0,.85,2.12,4,4,0,0,0,2.37.62,5.29,5.29,0,0,0,1.43-.23,6.05,6.05,0,0,0,1.31-.52,2.25,2.25,0,0,1,.41.56,1.65,1.65,0,0,1,.19.79,1.55,1.55,0,0,1-1,1.34A5.7,5.7,0,0,1,263.92,76.29Z"/><path class="cls-3" d="M272.12,75.73a4.22,4.22,0,0,1-.56.16,3,3,0,0,1-.83.1c-1.07,0-1.61-.45-1.61-1.35V61.94a2.53,2.53,0,0,1,.32-1.36,3.6,3.6,0,0,1,1.07-1,9.75,9.75,0,0,1,2.64-1.1,14,14,0,0,1,3.77-.47c2,0,3,.5,3,1.5a2.17,2.17,0,0,1-.11.69,2,2,0,0,1-.3.54c-.25-.05-.57-.1-1-.15a9.66,9.66,0,0,0-1.2-.07,12,12,0,0,0-3,.35,9.35,9.35,0,0,0-2.17.85Z"/><path class="cls-3" d="M296.32,67.15a11.44,11.44,0,0,1-.6,3.78A8.24,8.24,0,0,1,294,73.82a7.24,7.24,0,0,1-2.67,1.83,10,10,0,0,1-7,0,7.4,7.4,0,0,1-2.69-1.83,8.13,8.13,0,0,1-1.73-2.89,11.19,11.19,0,0,1-.6-3.78,10.94,10.94,0,0,1,.62-3.78,8.61,8.61,0,0,1,1.74-2.89,7.43,7.43,0,0,1,2.7-1.83,9.81,9.81,0,0,1,7,0A7.36,7.36,0,0,1,294,60.48a8.57,8.57,0,0,1,1.72,2.89A10.94,10.94,0,0,1,296.32,67.15Zm-8.51-6.67a4.93,4.93,0,0,0-4,1.76,7.45,7.45,0,0,0-1.46,4.91,7.52,7.52,0,0,0,1.44,4.92,5.47,5.47,0,0,0,8,0,7.62,7.62,0,0,0,1.42-4.91,7.56,7.56,0,0,0-1.44-4.91A4.88,4.88,0,0,0,287.81,60.48Z"/><path class="cls-3" d="M314.22,67.15a11.19,11.19,0,0,1-.6,3.78,8.24,8.24,0,0,1-1.71,2.89,7.16,7.16,0,0,1-2.67,1.83,10,10,0,0,1-7,0,7.43,7.43,0,0,1-2.7-1.83,8.11,8.11,0,0,1-1.72-2.89,11.19,11.19,0,0,1-.6-3.78,10.94,10.94,0,0,1,.61-3.78,8.48,8.48,0,0,1,1.75-2.89,7.31,7.31,0,0,1,2.69-1.83,9.81,9.81,0,0,1,7,0,7.28,7.28,0,0,1,2.68,1.83,8.57,8.57,0,0,1,1.72,2.89A10.94,10.94,0,0,1,314.22,67.15Zm-8.5-6.67a4.94,4.94,0,0,0-4,1.76,7.51,7.51,0,0,0-1.46,4.91,7.52,7.52,0,0,0,1.44,4.92,4.91,4.91,0,0,0,4,1.75,4.85,4.85,0,0,0,4-1.76,7.62,7.62,0,0,0,1.43-4.91,7.56,7.56,0,0,0-1.44-4.91A4.9,4.9,0,0,0,305.72,60.48Z"/><path class="cls-3" d="M337,61.34a4.31,4.31,0,0,0-2.81-.86,6.3,6.3,0,0,0-4.34,1.73,5.53,5.53,0,0,1,.22,1.6V75.73a3.86,3.86,0,0,1-.58.16,3.08,3.08,0,0,1-.8.1c-1.07,0-1.61-.45-1.61-1.35V64a3.31,3.31,0,0,0-1-2.7,4.38,4.38,0,0,0-2.85-.86,6.74,6.74,0,0,0-2.26.38,8.12,8.12,0,0,0-1.82.86v14a4.22,4.22,0,0,1-.56.16,3.1,3.1,0,0,1-.83.1c-1.07,0-1.61-.45-1.61-1.35V61.87a2.36,2.36,0,0,1,.32-1.26,3.75,3.75,0,0,1,1.11-1,10.62,10.62,0,0,1,2.56-1.1,10.9,10.9,0,0,1,3.13-.47,9.17,9.17,0,0,1,3.26.54A5.06,5.06,0,0,1,328.6,60,8.33,8.33,0,0,1,331,58.59a8.87,8.87,0,0,1,3.33-.58,7.51,7.51,0,0,1,4.83,1.44,5.34,5.34,0,0,1,1.8,4.44V75.73a4.72,4.72,0,0,1-.58.16,3.1,3.1,0,0,1-.81.1c-1.07,0-1.61-.45-1.61-1.35V64A3.31,3.31,0,0,0,337,61.34Z"/><polygon class="cls-2" points="54.84 97.99 54.84 50.71 43.76 50.71 43.76 107.7 83.9 107.7 83.9 97.99 54.84 97.99"/><path class="cls-2" d="M114.64,75V65.16c-9.71-1-14.42,8-15.17,9.47v-9H89.6V107.7h10.75V82.25c1.13-2.41,4.83-7.3,14.29-7.3Z"/></g></g></svg>