<svg xmlns="http://www.w3.org/2000/svg" viewBox="0 0 371 158.41"><defs><style>.cls-1{fill:#ae91c3;}.cls-2{fill:#383568;}.cls-3{fill:#009bc5;}</style></defs><g id="Capa_2" data-name="Capa 2"><g id="Capa_3" data-name="Capa 3"><path class="cls-1" d="M143.45,104.59H322A9.37,9.37,0,0,1,331.4,114v0a9.37,9.37,0,0,1-9.37,9.37H143.45a0,0,0,0,1,0,0V104.59a0,0,0,0,1,0,0Z"/><rect class="cls-1" width="158.41" height="158.41" rx="79.2"/><rect class="cls-2" x="15.59" y="15.59" width="127.23" height="127.23" rx="63.61"/><path class="cls-3" d="M186.86,70.06H176.5c-.19.52-.38,1.08-.59,1.68s-.4,1.2-.6,1.78-.38,1.12-.56,1.63-.32.92-.42,1.25a3.15,3.15,0,0,1-1.28.23,2,2,0,0,1-1.1-.32,1.19,1.19,0,0,1-.48-1.07,2.23,2.23,0,0,1,.11-.71c.08-.25.17-.51.27-.8.39-1.08.89-2.47,1.49-4.17s1.26-3.52,2-5.44,1.43-3.85,2.17-5.8,1.41-3.69,2-5.24a5,5,0,0,1,.93-.31,5.4,5.4,0,0,1,1.28-.15,4.58,4.58,0,0,1,1.48.23,1.29,1.29,0,0,1,.91.77q.93,2.25,2,5.13c.71,1.92,1.43,3.88,2.15,5.9s1.41,4,2.07,5.93,1.24,3.71,1.76,5.28a2.5,2.5,0,0,1-.73.56,2.19,2.19,0,0,1-1,.21,1.72,1.72,0,0,1-1.12-.32,2.51,2.51,0,0,1-.66-1.11Zm-5.18-14.82c-.29.78-.61,1.66-1,2.65L179.59,61c-.39,1.08-.78,2.18-1.16,3.29s-.75,2.16-1.09,3.17h8.71c-.39-1.16-.79-2.33-1.2-3.5s-.81-2.3-1.18-3.39-.72-2.08-1-3-.58-1.7-.79-2.35Z"/><path class="cls-3" d="M192.08,74.7a2.25,2.25,0,0,1,.56-1.55,2,2,0,0,1,1.57-.61,1.93,1.93,0,0,1,1.54.61,2.29,2.29,0,0,1,.55,1.55,2.21,2.21,0,0,1-.55,1.51,1.94,1.94,0,0,1-1.54.62,2,2,0,0,1-1.57-.62A2.17,2.17,0,0,1,192.08,74.7Z"/><path class="cls-3" d="M215.4,70.06H205c-.18.52-.38,1.08-.58,1.68s-.41,1.2-.6,1.78-.38,1.12-.56,1.63-.33.92-.43,1.25a3.12,3.12,0,0,1-1.28.23,2,2,0,0,1-1.1-.32,1.21,1.21,0,0,1-.48-1.07,2.25,2.25,0,0,1,.12-.71c.07-.25.16-.51.27-.8l1.48-4.17q.92-2.57,2-5.44t2.16-5.8c.74-2,1.41-3.69,2-5.24a5,5,0,0,1,.93-.31,5.4,5.4,0,0,1,1.28-.15,4.69,4.69,0,0,1,1.49.23,1.31,1.31,0,0,1,.91.77q.93,2.25,2,5.13c.71,1.92,1.42,3.88,2.14,5.9s1.42,4,2.07,5.93,1.25,3.71,1.76,5.28a2.37,2.37,0,0,1-.73.56,2.16,2.16,0,0,1-1,.21,1.74,1.74,0,0,1-1.12-.32,2.51,2.51,0,0,1-.66-1.11Zm-5.18-14.82c-.28.78-.6,1.66-1,2.65L208.13,61c-.39,1.08-.77,2.18-1.16,3.29s-.75,2.16-1.08,3.17h8.7c-.39-1.16-.79-2.33-1.2-3.5l-1.18-3.39c-.37-1.08-.72-2.08-1-3s-.59-1.7-.79-2.35Z"/><path class="cls-3" d="M224.88,59.46h7.66a5,5,0,0,1,.23.5,2.06,2.06,0,0,1,.11.74c0,.85-.39,1.28-1.19,1.28h-6.77V76.25a4.94,4.94,0,0,1-.58.17,3.25,3.25,0,0,1-.85.1c-1.11,0-1.67-.47-1.67-1.39V56.87c0-2.27.62-3.91,1.84-4.93a7.78,7.78,0,0,1,5.12-1.53,8.42,8.42,0,0,1,3.47.58c.84.39,1.25.87,1.25,1.43a1.84,1.84,0,0,1-.65,1.43,7.15,7.15,0,0,0-1.74-.63,8.55,8.55,0,0,0-2-.26,4.46,4.46,0,0,0-3.28,1,4.37,4.37,0,0,0-.93,3.1Z"/><path class="cls-3" d="M239.81,76.83a7.38,7.38,0,0,1-4.39-1.2,4.56,4.56,0,0,1-1.69-4V53.27a4.91,4.91,0,0,1,.6-.17,4.16,4.16,0,0,1,.88-.1c1.08,0,1.62.47,1.62,1.4v4.44h6.34a3.24,3.24,0,0,1,.24.52,2.36,2.36,0,0,1,.11.72c0,.88-.39,1.31-1.16,1.31h-5.53V71.45a2.55,2.55,0,0,0,.87,2.19,4.14,4.14,0,0,0,2.46.64,5.33,5.33,0,0,0,1.47-.24A5.74,5.74,0,0,0,243,73.5a3,3,0,0,1,.43.58,1.76,1.76,0,0,1,.19.81,1.62,1.62,0,0,1-1,1.4A5.94,5.94,0,0,1,239.81,76.83Z"/><path class="cls-3" d="M246.81,69.21q1,5.07,6.65,5.07a7.7,7.7,0,0,0,2.94-.55,8.36,8.36,0,0,0,2.09-1.16,1.65,1.65,0,0,1,.93,1.47,1.55,1.55,0,0,1-.49,1,4.48,4.48,0,0,1-1.31.89,9.84,9.84,0,0,1-1.94.62,11.76,11.76,0,0,1-2.37.23,10,10,0,0,1-7.1-2.44c-1.74-1.62-2.61-4-2.61-7.12a11.11,11.11,0,0,1,.64-3.92A8.31,8.31,0,0,1,246,60.43a7.7,7.7,0,0,1,2.73-1.84,9.27,9.27,0,0,1,3.44-.64,8.81,8.81,0,0,1,3.21.58,7.44,7.44,0,0,1,2.54,1.65,7.58,7.58,0,0,1,1.66,2.51,8.28,8.28,0,0,1,.6,3.19,1.61,1.61,0,0,1-.39,1.22,1.82,1.82,0,0,1-1.08.45Zm5.34-8.74a5.15,5.15,0,0,0-3.91,1.64,6.92,6.92,0,0,0-1.63,4.7l10.64-1.47a5.66,5.66,0,0,0-1.49-3.5A4.74,4.74,0,0,0,252.15,60.47Z"/><path class="cls-3" d="M264.87,76.25a4.41,4.41,0,0,1-.58.17,3.25,3.25,0,0,1-.85.1c-1.11,0-1.66-.47-1.66-1.39V62a2.54,2.54,0,0,1,.33-1.41,3.33,3.33,0,0,1,1.1-1,9.88,9.88,0,0,1,2.72-1.14,14.52,14.52,0,0,1,3.89-.49c2.06,0,3.09.52,3.09,1.55a2.09,2.09,0,0,1-.11.72,1.89,1.89,0,0,1-.31.56,9.86,9.86,0,0,0-1-.16,10.14,10.14,0,0,0-1.23-.07,12.32,12.32,0,0,0-3.14.36,10.27,10.27,0,0,0-2.24.87Z"/><path class="cls-3" d="M284.32,75.86a1.67,1.67,0,0,1-.46-1.24V54.51a1.59,1.59,0,0,1,1.7-1.7H298.4a2.87,2.87,0,0,1,.24.52,2.36,2.36,0,0,1,.11.72,1.59,1.59,0,0,1-.31,1,1.06,1.06,0,0,1-.89.39H287v7.46h10.22a4.6,4.6,0,0,1,.23.52,2.36,2.36,0,0,1,.11.72,1.5,1.5,0,0,1-.31,1,1.07,1.07,0,0,1-.89.37H287V73.7H298.6a2.66,2.66,0,0,1,.23.5,2,2,0,0,1,.12.73,1.6,1.6,0,0,1-.31,1,1.13,1.13,0,0,1-.89.37H285.56A1.69,1.69,0,0,1,284.32,75.86Z"/><path class="cls-3" d="M304.09,59.46h7.66a3.43,3.43,0,0,1,.23.5,2,2,0,0,1,.12.74c0,.85-.4,1.28-1.2,1.28h-6.77V76.25a4.41,4.41,0,0,1-.58.17,3.25,3.25,0,0,1-.85.1c-1.11,0-1.67-.47-1.67-1.39V56.87c0-2.27.62-3.91,1.84-4.93A7.79,7.79,0,0,1,308,50.41a8.4,8.4,0,0,1,3.46.58c.83.39,1.25.87,1.25,1.43a1.81,1.81,0,0,1-.65,1.43,7.15,7.15,0,0,0-1.74-.63,8.53,8.53,0,0,0-2-.26,4.49,4.49,0,0,0-3.29,1,4.37,4.37,0,0,0-.93,3.1Zm14.89,0h7.66a3.43,3.43,0,0,1,.23.5,2,2,0,0,1,.12.74c0,.85-.4,1.28-1.2,1.28H319V76.25a4.41,4.41,0,0,1-.58.17,3.25,3.25,0,0,1-.85.1c-1.11,0-1.66-.47-1.66-1.39V56.87q0-3.4,1.83-4.93a7.81,7.81,0,0,1,5.13-1.53,8.37,8.37,0,0,1,3.46.58c.84.39,1.26.87,1.26,1.43a1.82,1.82,0,0,1-.66,1.43,7.15,7.15,0,0,0-1.74-.63,8.53,8.53,0,0,0-2-.26,4.49,4.49,0,0,0-3.29,1A4.37,4.37,0,0,0,319,57Z"/><path class="cls-3" d="M330.54,69.21q1.05,5.07,6.65,5.07a7.71,7.71,0,0,0,2.95-.55,8.28,8.28,0,0,0,2.08-1.16,1.65,1.65,0,0,1,.93,1.47,1.53,1.53,0,0,1-.48,1,4.48,4.48,0,0,1-1.31.89,9.84,9.84,0,0,1-1.94.62,11.87,11.87,0,0,1-2.38.23,10,10,0,0,1-7.1-2.44c-1.74-1.62-2.61-4-2.61-7.12a11.11,11.11,0,0,1,.64-3.92,8.48,8.48,0,0,1,1.78-2.92,7.7,7.7,0,0,1,2.73-1.84,9.2,9.2,0,0,1,3.44-.64,8.81,8.81,0,0,1,3.21.58,7.4,7.4,0,0,1,2.53,1.65,7.61,7.61,0,0,1,1.67,2.51,8.28,8.28,0,0,1,.6,3.19,1.61,1.61,0,0,1-.39,1.22,1.85,1.85,0,0,1-1.08.45Zm5.34-8.74A5.16,5.16,0,0,0,332,62.11a6.87,6.87,0,0,0-1.62,4.7L341,65.34a5.72,5.72,0,0,0-1.49-3.5A4.76,4.76,0,0,0,335.88,60.47Z"/><path class="cls-3" d="M353.79,60.55a6.49,6.49,0,0,0-2.44.44,5.25,5.25,0,0,0-1.93,1.31,6.37,6.37,0,0,0-1.28,2.17,8.76,8.76,0,0,0-.46,3,7.14,7.14,0,0,0,1.66,5.09,5.84,5.84,0,0,0,4.45,1.76,7.05,7.05,0,0,0,2.7-.45,10.42,10.42,0,0,0,1.94-1,2.25,2.25,0,0,1,.7.59,1.33,1.33,0,0,1,.27.85,1.48,1.48,0,0,1-.43,1,3.5,3.5,0,0,1-1.18.81,7.62,7.62,0,0,1-1.78.56,10.31,10.31,0,0,1-2.22.22,11.59,11.59,0,0,1-3.71-.58,7.76,7.76,0,0,1-4.88-4.66,11.4,11.4,0,0,1-.69-4.16,10.64,10.64,0,0,1,.73-4.12,8.87,8.87,0,0,1,2-3,8.05,8.05,0,0,1,2.92-1.8,10.63,10.63,0,0,1,3.58-.6,11.17,11.17,0,0,1,2.23.22,6.6,6.6,0,0,1,1.76.6,3.73,3.73,0,0,1,1.14.87,1.51,1.51,0,0,1,.4,1,1.28,1.28,0,0,1-.27.81,1.78,1.78,0,0,1-.69.55,10.37,10.37,0,0,0-1.86-1A6.92,6.92,0,0,0,353.79,60.55Z"/><path class="cls-3" d="M367.21,76.83a7.38,7.38,0,0,1-4.39-1.2,4.56,4.56,0,0,1-1.68-4V53.27a4.42,4.42,0,0,1,.6-.17,4,4,0,0,1,.87-.1c1.08,0,1.62.47,1.62,1.4v4.44h6.34a3.24,3.24,0,0,1,.24.52,2.36,2.36,0,0,1,.11.72c0,.88-.38,1.31-1.16,1.31h-5.53V71.45a2.55,2.55,0,0,0,.87,2.19,4.14,4.14,0,0,0,2.46.64A5.22,5.22,0,0,0,369,74a5.74,5.74,0,0,0,1.35-.54,2.65,2.65,0,0,1,.43.58,1.76,1.76,0,0,1,.19.81,1.6,1.6,0,0,1-1,1.4A6,6,0,0,1,367.21,76.83Z"/><path class="cls-1" d="M61.64,50.78H52l-21.4,56.05H41.82l5.13-14H66.53l5.21,14H83ZM48.77,85.2l8-22,7.74,22Z"/><path class="cls-1" d="M127.79,86c0-14.27-11-21.23-21.55-21.23-14.73,0-21.87,11.36-21.87,21.63,0,11.44,8.58,21.23,21.79,21.23,12.57,0,17.74-7.66,19.26-10.81l-9.08-2.53c-.68,1.69-3.92,5.61-9.78,5.61-9.07,0-10.82-8.71-11-10.35h32A32.9,32.9,0,0,0,127.79,86ZM95.43,82.68c.48-6.07,5.09-10.27,10.65-10.27,5.41,0,10.18,3.67,10.82,10.27Z"/></g></g></svg>